<svg xmlns="http://www.w3.org/2000/svg" xmlns:xlink="http://www.w3.org/1999/xlink" width="500" zoomAndPan="magnify" viewBox="0 0 375 374.999991" height="500" preserveAspectRatio="xMidYMid meet" version="1.0"><path fill="#cc8306" d="M 241.03125 292.113281 L 131.253906 292.113281 L 76.363281 197.042969 L 131.253906 101.972656 L 241.03125 101.972656 L 295.921875 197.042969 Z M 133.804688 287.6875 L 238.476562 287.6875 L 290.8125 197.042969 L 238.476562 106.394531 L 133.804688 106.394531 L 81.46875 197.042969 Z M 133.804688 287.6875 " fill-opacity="1" fill-rule="nonzero"/><path fill="#cc8306" d="M 336.601562 200.902344 C 336.601562 200.902344 336.5625 200.902344 336.539062 200.902344 L 292.015625 198.882812 C 291.28125 198.847656 290.714844 198.226562 290.75 197.496094 C 290.785156 196.765625 291.40625 196.195312 292.132812 196.230469 L 336.660156 198.253906 C 337.394531 198.289062 337.960938 198.910156 337.925781 199.636719 C 337.894531 200.351562 337.304688 200.902344 336.597656 200.902344 Z M 336.601562 200.902344 " fill-opacity="1" fill-rule="nonzero"/><path fill="#cc8306" d="M 336.171875 204.046875 C 338.648438 204.160156 340.75 202.242188 340.863281 199.765625 C 340.972656 197.289062 339.058594 195.1875 336.578125 195.078125 C 334.101562 194.96875 332 196.882812 331.890625 199.359375 C 331.78125 201.835938 333.695312 203.9375 336.171875 204.046875 Z M 336.171875 204.046875 " fill-opacity="1" fill-rule="nonzero"/><path fill="#cc8306" d="M 353.554688 210.492188 L 353.53125 210.492188 L 285.949219 209.40625 C 285.214844 209.390625 284.632812 208.789062 284.644531 208.054688 C 284.660156 207.332031 285.246094 206.75 285.972656 206.75 L 285.996094 206.75 L 353.574219 207.839844 C 354.308594 207.851562 354.894531 208.453125 354.878906 209.1875 C 354.867188 209.914062 354.277344 210.492188 353.554688 210.492188 Z M 353.554688 210.492188 " fill-opacity="1" fill-rule="nonzero"/><path fill="#cc8306" d="M 357.222656 206.929688 C 357.367188 207.1875 357.488281 207.453125 357.582031 207.734375 C 357.675781 208.015625 357.742188 208.300781 357.78125 208.59375 C 357.816406 208.882812 357.824219 209.179688 357.804688 209.472656 C 357.785156 209.765625 357.738281 210.054688 357.660156 210.339844 C 357.582031 210.625 357.476562 210.898438 357.347656 211.164062 C 357.214844 211.425781 357.058594 211.675781 356.878906 211.910156 C 356.699219 212.140625 356.496094 212.355469 356.273438 212.550781 C 356.054688 212.742188 355.8125 212.914062 355.558594 213.058594 C 355.300781 213.207031 355.035156 213.328125 354.753906 213.421875 C 354.476562 213.515625 354.191406 213.578125 353.898438 213.617188 C 353.605469 213.65625 353.3125 213.664062 353.015625 213.644531 C 352.722656 213.621094 352.433594 213.574219 352.148438 213.496094 C 351.863281 213.417969 351.589844 213.316406 351.328125 213.183594 C 351.0625 213.054688 350.8125 212.898438 350.582031 212.714844 C 350.347656 212.535156 350.132812 212.335938 349.941406 212.113281 C 349.746094 211.890625 349.578125 211.652344 349.429688 211.394531 C 349.285156 211.140625 349.164062 210.871094 349.070312 210.59375 C 348.976562 210.3125 348.910156 210.027344 348.871094 209.734375 C 348.835938 209.441406 348.828125 209.148438 348.847656 208.855469 C 348.867188 208.5625 348.914062 208.273438 348.992188 207.988281 C 349.070312 207.703125 349.175781 207.429688 349.304688 207.164062 C 349.4375 206.898438 349.59375 206.652344 349.773438 206.417969 C 349.953125 206.183594 350.15625 205.972656 350.375 205.777344 C 350.597656 205.585938 350.839844 205.414062 351.09375 205.269531 C 351.351562 205.121094 351.617188 205 351.898438 204.90625 C 352.175781 204.8125 352.460938 204.746094 352.753906 204.710938 C 353.046875 204.671875 353.339844 204.664062 353.632812 204.683594 C 353.929688 204.703125 354.21875 204.753906 354.503906 204.832031 C 354.785156 204.90625 355.0625 205.011719 355.324219 205.144531 C 355.589844 205.273438 355.835938 205.429688 356.070312 205.609375 C 356.304688 205.789062 356.519531 205.992188 356.710938 206.214844 C 356.90625 206.4375 357.074219 206.675781 357.222656 206.929688 Z M 357.222656 206.929688 " fill-opacity="1" fill-rule="nonzero"/><path fill="#cc8306" d="M 335.234375 222.390625 C 335.234375 222.390625 335.207031 222.390625 335.195312 222.390625 L 281.867188 220.796875 C 281.132812 220.773438 280.558594 220.164062 280.578125 219.429688 C 280.601562 218.714844 281.191406 218.144531 281.90625 218.144531 C 281.921875 218.144531 281.933594 218.144531 281.945312 218.144531 L 335.273438 219.734375 C 336.007812 219.757812 336.585938 220.367188 336.5625 221.101562 C 336.539062 221.820312 335.953125 222.390625 335.234375 222.390625 Z M 335.234375 222.390625 " fill-opacity="1" fill-rule="nonzero"/><path fill="#cc8306" d="M 334.875 225.542969 C 337.355469 225.617188 339.425781 223.667969 339.5 221.191406 C 339.574219 218.714844 337.625 216.644531 335.148438 216.566406 C 332.667969 216.492188 330.597656 218.445312 330.523438 220.921875 C 330.449219 223.398438 332.398438 225.46875 334.875 225.542969 Z M 334.875 225.542969 " fill-opacity="1" fill-rule="nonzero"/><path fill="#cc8306" d="M 338.542969 201.828125 C 338.140625 201.828125 337.738281 201.640625 337.476562 201.292969 C 337.039062 200.703125 337.160156 199.871094 337.746094 199.433594 L 369.304688 175.882812 C 369.894531 175.445312 370.726562 175.5625 371.164062 176.152344 C 371.601562 176.742188 371.484375 177.574219 370.894531 178.011719 L 339.335938 201.5625 C 339.097656 201.738281 338.816406 201.828125 338.542969 201.828125 Z M 338.542969 201.828125 " fill-opacity="1" fill-rule="nonzero"/><path fill="#cc8306" d="M 372.605469 180.683594 C 374.59375 179.199219 375.003906 176.386719 373.519531 174.394531 C 372.035156 172.410156 369.222656 172 367.230469 173.484375 C 365.246094 174.96875 364.835938 177.78125 366.320312 179.769531 C 367.800781 181.757812 370.617188 182.167969 372.605469 180.683594 Z M 372.605469 180.683594 " fill-opacity="1" fill-rule="nonzero"/><path fill="#cc8306" d="M 355.300781 210.777344 C 354.902344 210.777344 354.507812 210.601562 354.25 210.257812 C 353.800781 209.679688 353.90625 208.84375 354.488281 208.398438 L 366.019531 199.488281 C 366.597656 199.042969 367.433594 199.148438 367.882812 199.726562 C 368.328125 200.304688 368.222656 201.140625 367.644531 201.589844 L 356.109375 210.5 C 355.867188 210.683594 355.585938 210.777344 355.300781 210.777344 Z M 355.300781 210.777344 " fill-opacity="1" fill-rule="nonzero"/><path fill="#cc8306" d="M 369.402344 204.230469 C 371.367188 202.710938 371.726562 199.894531 370.214844 197.929688 C 368.695312 195.964844 365.878906 195.609375 363.914062 197.121094 C 361.949219 198.636719 361.589844 201.457031 363.105469 203.421875 C 364.617188 205.382812 367.441406 205.742188 369.402344 204.230469 Z M 369.402344 204.230469 " fill-opacity="1" fill-rule="nonzero"/><path fill="#cc8306" d="M 364.105469 235.855469 C 363.90625 235.855469 363.703125 235.8125 363.511719 235.714844 L 336.425781 222.167969 C 335.769531 221.839844 335.503906 221.042969 335.832031 220.386719 C 336.160156 219.730469 336.957031 219.464844 337.613281 219.792969 L 364.703125 233.339844 C 365.355469 233.664062 365.621094 234.460938 365.292969 235.121094 C 365.058594 235.585938 364.589844 235.855469 364.105469 235.855469 Z M 364.105469 235.855469 " fill-opacity="1" fill-rule="nonzero"/><path fill="#cc8306" d="M 361.898438 238.441406 C 364.113281 239.554688 366.8125 238.652344 367.921875 236.433594 C 369.03125 234.21875 368.128906 231.519531 365.914062 230.410156 C 363.699219 229.300781 361 230.203125 359.886719 232.417969 C 358.777344 234.632812 359.679688 237.332031 361.898438 238.441406 Z M 361.898438 238.441406 " fill-opacity="1" fill-rule="nonzero"/><path fill="#cc8306" d="M 241.121094 106.863281 L 239.894531 106.863281 C 239.160156 106.863281 238.566406 106.269531 238.566406 105.535156 C 238.566406 104.800781 239.160156 104.210938 239.894531 104.210938 L 240.023438 104.210938 L 288.332031 55.902344 C 288.847656 55.382812 289.6875 55.382812 290.207031 55.902344 C 290.722656 56.417969 290.722656 57.261719 290.207031 57.777344 Z M 241.121094 106.863281 " fill-opacity="1" fill-rule="nonzero"/><path fill="#cc8306" d="M 292.28125 60.175781 C 294.03125 58.421875 294.03125 55.578125 292.28125 53.824219 C 290.527344 52.070312 287.683594 52.070312 285.929688 53.824219 C 284.175781 55.574219 284.175781 58.417969 285.929688 60.175781 C 287.679688 61.925781 290.523438 61.925781 292.28125 60.175781 Z M 292.28125 60.175781 " fill-opacity="1" fill-rule="nonzero"/><path fill="#cc8306" d="M 247.347656 120.417969 C 247.007812 120.417969 246.667969 120.289062 246.410156 120.027344 C 245.894531 119.511719 245.894531 118.671875 246.410156 118.152344 L 275.585938 88.980469 C 276.101562 88.460938 276.945312 88.460938 277.460938 88.980469 C 277.980469 89.496094 277.980469 90.335938 277.460938 90.855469 L 248.285156 120.027344 C 248.027344 120.289062 247.6875 120.417969 247.347656 120.417969 Z M 247.347656 120.417969 " fill-opacity="1" fill-rule="nonzero"/><path fill="#cc8306" d="M 279.539062 93.246094 C 281.292969 91.496094 281.292969 88.652344 279.539062 86.894531 C 277.789062 85.140625 274.945312 85.144531 273.1875 86.894531 C 271.429688 88.648438 271.4375 91.492188 273.1875 93.246094 C 274.941406 95.003906 277.785156 95 279.539062 93.246094 Z M 279.539062 93.246094 " fill-opacity="1" fill-rule="nonzero"/><path fill="#cc8306" d="M 224.980469 104.828125 C 224.613281 104.828125 224.242188 104.675781 223.984375 104.378906 C 223.5 103.824219 223.558594 102.988281 224.105469 102.507812 L 229.496094 97.789062 L 253.554688 73.730469 C 254.074219 73.210938 254.914062 73.210938 255.429688 73.730469 C 255.949219 74.246094 255.949219 75.089844 255.429688 75.605469 L 231.277344 99.753906 L 225.855469 104.496094 C 225.601562 104.71875 225.292969 104.824219 224.980469 104.824219 Z M 224.980469 104.828125 " fill-opacity="1" fill-rule="nonzero"/><path fill="#cc8306" d="M 257.511719 78.003906 C 259.261719 76.25 259.261719 73.40625 257.511719 71.652344 C 255.757812 69.894531 252.914062 69.898438 251.15625 71.652344 C 249.402344 73.402344 249.40625 76.246094 251.15625 78.003906 C 252.910156 79.757812 255.753906 79.753906 257.511719 78.003906 Z M 257.511719 78.003906 " fill-opacity="1" fill-rule="nonzero"/><path fill="#cc8306" d="M 255.507812 73.894531 C 254.773438 73.894531 254.179688 73.300781 254.179688 72.566406 L 254.179688 51.046875 C 254.179688 50.3125 254.773438 49.71875 255.507812 49.71875 C 256.242188 49.71875 256.832031 50.3125 256.832031 51.046875 L 256.832031 72.566406 C 256.832031 73.300781 256.242188 73.894531 255.507812 73.894531 Z M 255.507812 73.894531 " fill-opacity="1" fill-rule="nonzero"/><path fill="#cc8306" d="M 259.996094 51.269531 C 259.996094 48.789062 257.984375 46.78125 255.507812 46.78125 C 253.027344 46.78125 251.015625 48.792969 251.015625 51.269531 C 251.015625 53.746094 253.027344 55.761719 255.507812 55.761719 C 257.984375 55.761719 259.996094 53.746094 259.996094 51.269531 Z M 259.996094 51.269531 " fill-opacity="1" fill-rule="nonzero"/><path fill="#cc8306" d="M 289.984375 54.878906 C 289.25 54.878906 288.65625 54.289062 288.65625 53.554688 L 288.65625 37.941406 C 288.65625 37.207031 289.25 36.613281 289.984375 36.613281 C 290.71875 36.613281 291.3125 37.207031 291.3125 37.941406 L 291.3125 53.554688 C 291.3125 54.289062 290.71875 54.878906 289.984375 54.878906 Z M 289.984375 54.878906 " fill-opacity="1" fill-rule="nonzero"/><path fill="#cc8306" d="M 294.476562 38.164062 C 294.476562 35.679688 292.460938 33.671875 289.984375 33.671875 C 287.507812 33.671875 285.496094 35.6875 285.496094 38.164062 C 285.496094 40.640625 287.507812 42.652344 289.984375 42.652344 C 292.460938 42.652344 294.476562 40.640625 294.476562 38.164062 Z M 294.476562 38.164062 " fill-opacity="1" fill-rule="nonzero"/><path fill="#cc8306" d="M 285.542969 97.988281 C 285.203125 97.988281 284.863281 97.863281 284.605469 97.601562 L 277.828125 90.824219 C 277.3125 90.304688 277.3125 89.464844 277.828125 88.949219 C 278.347656 88.429688 279.1875 88.429688 279.703125 88.949219 L 286.480469 95.726562 C 287 96.242188 287 97.082031 286.480469 97.601562 C 286.21875 97.863281 285.882812 97.988281 285.542969 97.988281 Z M 285.542969 97.988281 " fill-opacity="1" fill-rule="nonzero"/><path fill="#cc8306" d="M 282.207031 99.679688 C 283.960938 101.429688 286.804688 101.429688 288.558594 99.679688 C 290.3125 97.929688 290.3125 95.082031 288.558594 93.328125 C 286.808594 91.574219 283.964844 91.574219 282.207031 93.328125 C 280.457031 95.078125 280.457031 97.921875 282.207031 99.679688 Z M 282.207031 99.679688 " fill-opacity="1" fill-rule="nonzero"/><path fill="#cc8306" d="M 175.511719 105.503906 C 174.777344 105.503906 174.183594 104.914062 174.183594 104.179688 L 174.183594 50.148438 C 174.183594 49.414062 174.777344 48.820312 175.511719 48.820312 C 176.246094 48.820312 176.839844 49.414062 176.839844 50.148438 L 176.839844 104.179688 C 176.839844 104.914062 176.246094 105.503906 175.511719 105.503906 Z M 175.511719 105.503906 " fill-opacity="1" fill-rule="nonzero"/><path fill="#cc8306" d="M 180 50.378906 C 180 47.894531 177.988281 45.886719 175.511719 45.886719 C 173.035156 45.886719 171.023438 47.898438 171.023438 50.378906 C 171.023438 52.855469 173.035156 54.867188 175.511719 54.867188 C 177.988281 54.867188 180 52.855469 180 50.378906 Z M 180 50.378906 " fill-opacity="1" fill-rule="nonzero"/><path fill="#cc8306" d="M 163.316406 104.828125 C 162.582031 104.828125 161.988281 104.234375 161.988281 103.5 L 161.988281 71.167969 C 161.988281 70.433594 162.582031 69.839844 163.316406 69.839844 C 164.050781 69.839844 164.640625 70.433594 164.640625 71.167969 L 164.640625 103.5 C 164.640625 104.234375 164.050781 104.828125 163.316406 104.828125 Z M 163.316406 104.828125 " fill-opacity="1" fill-rule="nonzero"/><path fill="#cc8306" d="M 167.804688 71.394531 C 167.804688 68.914062 165.792969 66.902344 163.316406 66.902344 C 160.839844 66.902344 158.824219 68.917969 158.824219 71.394531 C 158.824219 73.871094 160.839844 75.882812 163.316406 75.882812 C 165.792969 75.882812 167.804688 73.871094 167.804688 71.394531 Z M 167.804688 71.394531 " fill-opacity="1" fill-rule="nonzero"/><path fill="#cc8306" d="M 185.675781 104.152344 C 184.941406 104.152344 184.351562 103.558594 184.351562 102.824219 L 184.351562 41.824219 L 201.519531 24.65625 C 202.035156 24.140625 202.875 24.140625 203.394531 24.65625 C 203.910156 25.175781 203.910156 26.015625 203.394531 26.53125 L 187.003906 42.921875 L 187.003906 102.824219 C 187.003906 103.558594 186.410156 104.152344 185.675781 104.152344 Z M 185.675781 104.152344 " fill-opacity="1" fill-rule="nonzero"/><path fill="#cc8306" d="M 205.472656 28.929688 C 207.226562 27.179688 207.226562 24.335938 205.472656 22.578125 C 203.722656 20.828125 200.878906 20.828125 199.121094 22.578125 C 197.371094 24.332031 197.371094 27.175781 199.121094 28.929688 C 200.871094 30.683594 203.71875 30.683594 205.472656 28.929688 Z M 205.472656 28.929688 " fill-opacity="1" fill-rule="nonzero"/><path fill="#cc8306" d="M 175.058594 48.101562 C 174.71875 48.101562 174.378906 47.976562 174.121094 47.714844 L 160.730469 34.324219 C 160.214844 33.804688 160.214844 32.964844 160.730469 32.449219 C 161.25 31.929688 162.089844 31.929688 162.609375 32.449219 L 176 45.839844 C 176.515625 46.355469 176.515625 47.195312 176 47.714844 C 175.738281 47.976562 175.402344 48.101562 175.058594 48.101562 Z M 175.058594 48.101562 " fill-opacity="1" fill-rule="nonzero"/><path fill="#cc8306" d="M 165.003906 30.367188 C 163.253906 28.617188 160.410156 28.617188 158.652344 30.367188 C 156.902344 32.121094 156.902344 34.964844 158.652344 36.722656 C 160.40625 38.472656 163.25 38.472656 165.003906 36.722656 C 166.757812 34.96875 166.757812 32.125 165.003906 30.367188 Z M 165.003906 30.367188 " fill-opacity="1" fill-rule="nonzero"/><path fill="#cc8306" d="M 161.753906 70.449219 C 161.414062 70.449219 161.074219 70.320312 160.816406 70.058594 L 152.078125 61.320312 C 151.5625 60.804688 151.5625 59.964844 152.078125 59.445312 C 152.597656 58.929688 153.4375 58.929688 153.953125 59.445312 L 162.691406 68.183594 C 163.210938 68.699219 163.210938 69.539062 162.691406 70.058594 C 162.429688 70.320312 162.09375 70.449219 161.753906 70.449219 Z M 161.753906 70.449219 " fill-opacity="1" fill-rule="nonzero"/><path fill="#cc8306" d="M 156.347656 57.367188 C 154.597656 55.613281 151.75 55.613281 149.996094 57.367188 C 148.242188 59.117188 148.242188 61.960938 149.996094 63.71875 C 151.746094 65.472656 154.59375 65.472656 156.347656 63.71875 C 158.101562 61.96875 158.101562 59.121094 156.347656 57.367188 Z M 156.347656 57.367188 " fill-opacity="1" fill-rule="nonzero"/><path fill="#cc8306" d="M 77.246094 199.027344 L 21.867188 199.027344 C 21.132812 199.027344 20.539062 198.433594 20.539062 197.699219 C 20.539062 196.964844 21.132812 196.375 21.867188 196.375 L 77.25 196.375 C 77.984375 196.375 78.578125 196.964844 78.578125 197.699219 C 78.578125 198.433594 77.984375 199.027344 77.25 199.027344 Z M 77.246094 199.027344 " fill-opacity="1" fill-rule="nonzero"/><path fill="#cc8306" d="M 22.085938 193.210938 C 19.605469 193.210938 17.597656 195.222656 17.597656 197.699219 C 17.597656 200.179688 19.609375 202.191406 22.085938 202.191406 C 24.566406 202.191406 26.578125 200.179688 26.578125 197.699219 C 26.578125 195.222656 24.566406 193.210938 22.085938 193.210938 Z M 22.085938 193.210938 " fill-opacity="1" fill-rule="nonzero"/><path fill="#cc8306" d="M 83.347656 210.546875 L 34.230469 210.546875 C 33.496094 210.546875 32.902344 209.953125 32.902344 209.21875 C 32.902344 208.484375 33.496094 207.894531 34.230469 207.894531 L 83.347656 207.894531 C 84.082031 207.894531 84.675781 208.484375 84.675781 209.21875 C 84.675781 209.953125 84.082031 210.546875 83.347656 210.546875 Z M 83.347656 210.546875 " fill-opacity="1" fill-rule="nonzero"/><path fill="#cc8306" d="M 34.457031 204.730469 C 31.976562 204.730469 29.964844 206.742188 29.964844 209.21875 C 29.964844 211.699219 31.980469 213.710938 34.457031 213.710938 C 36.933594 213.710938 38.945312 211.699219 38.945312 209.21875 C 38.945312 206.742188 36.933594 204.730469 34.457031 204.730469 Z M 34.457031 204.730469 " fill-opacity="1" fill-rule="nonzero"/><path fill="#cc8306" d="M 84.023438 188.183594 L 31.332031 188.183594 C 30.597656 188.183594 30.007812 187.59375 30.007812 186.859375 C 30.007812 186.125 30.597656 185.53125 31.332031 185.53125 L 84.027344 185.53125 C 84.761719 185.53125 85.355469 186.125 85.355469 186.859375 C 85.355469 187.59375 84.761719 188.183594 84.027344 188.183594 Z M 84.023438 188.183594 " fill-opacity="1" fill-rule="nonzero"/><path fill="#cc8306" d="M 31.554688 182.367188 C 29.074219 182.367188 27.0625 184.378906 27.0625 186.859375 C 27.0625 189.335938 29.078125 191.347656 31.554688 191.347656 C 34.03125 191.347656 36.042969 189.335938 36.042969 186.859375 C 36.042969 184.378906 34.03125 182.367188 31.554688 182.367188 Z M 31.554688 182.367188 " fill-opacity="1" fill-rule="nonzero"/><path fill="#cc8306" d="M 83.808594 300.222656 C 83.46875 300.222656 83.125 300.09375 82.871094 299.832031 C 82.351562 299.3125 82.351562 298.472656 82.871094 297.957031 L 116.972656 263.851562 C 117.488281 263.335938 118.332031 263.335938 118.847656 263.851562 C 119.367188 264.371094 119.367188 265.210938 118.847656 265.730469 L 84.746094 299.832031 C 84.484375 300.09375 84.148438 300.222656 83.808594 300.222656 Z M 83.808594 300.222656 " fill-opacity="1" fill-rule="nonzero"/><path fill="#cc8306" d="M 80.789062 295.5625 C 79.039062 297.3125 79.039062 300.160156 80.789062 301.914062 C 82.542969 303.667969 85.386719 303.667969 87.144531 301.914062 C 88.898438 300.164062 88.894531 297.320312 87.144531 295.5625 C 85.390625 293.8125 82.546875 293.8125 80.789062 295.5625 Z M 80.789062 295.5625 " fill-opacity="1" fill-rule="nonzero"/><path fill="#cc8306" d="M 83.3125 316.300781 C 82.972656 316.300781 82.632812 316.171875 82.375 315.910156 C 81.855469 315.394531 81.855469 314.554688 82.375 314.035156 L 121.714844 274.695312 C 122.230469 274.179688 123.074219 274.179688 123.589844 274.695312 C 124.109375 275.214844 124.109375 276.054688 123.589844 276.570312 L 84.25 315.910156 C 83.988281 316.171875 83.652344 316.300781 83.3125 316.300781 Z M 83.3125 316.300781 " fill-opacity="1" fill-rule="nonzero"/><path fill="#cc8306" d="M 80.300781 311.636719 C 78.546875 313.390625 78.546875 316.234375 80.300781 317.992188 C 82.050781 319.746094 84.894531 319.742188 86.652344 317.992188 C 88.410156 316.238281 88.402344 313.394531 86.652344 311.636719 C 84.898438 309.882812 82.054688 309.886719 80.300781 311.636719 Z M 80.300781 311.636719 " fill-opacity="1" fill-rule="nonzero"/><path fill="#cc8306" d="M 110.398438 303.445312 C 110.058594 303.445312 109.71875 303.316406 109.460938 303.054688 C 108.941406 302.539062 108.941406 301.699219 109.460938 301.179688 L 127.136719 283.503906 C 127.65625 282.984375 128.496094 282.984375 129.015625 283.503906 C 129.53125 284.019531 129.53125 284.863281 129.015625 285.378906 L 111.335938 303.054688 C 111.074219 303.316406 110.738281 303.445312 110.398438 303.445312 Z M 110.398438 303.445312 " fill-opacity="1" fill-rule="nonzero"/><path fill="#cc8306" d="M 107.382812 298.789062 C 105.628906 300.539062 105.628906 303.382812 107.382812 305.140625 C 109.132812 306.890625 111.976562 306.890625 113.734375 305.140625 C 115.492188 303.386719 115.484375 300.542969 113.734375 298.789062 C 111.980469 297.035156 109.136719 297.035156 107.382812 298.789062 Z M 107.382812 298.789062 " fill-opacity="1" fill-rule="nonzero"/><path fill="#cc8306" d="M 203.972656 333.433594 C 203.238281 333.433594 202.648438 332.839844 202.648438 332.105469 L 202.648438 292.578125 C 202.648438 291.84375 203.238281 291.25 203.972656 291.25 C 204.707031 291.25 205.300781 291.84375 205.300781 292.578125 L 205.300781 332.105469 C 205.300781 332.839844 204.707031 333.433594 203.972656 333.433594 Z M 203.972656 333.433594 " fill-opacity="1" fill-rule="nonzero"/><path fill="#cc8306" d="M 199.484375 331.882812 C 199.484375 334.363281 201.496094 336.371094 203.972656 336.371094 C 206.453125 336.371094 208.464844 334.359375 208.464844 331.882812 C 208.464844 329.402344 206.453125 327.390625 203.972656 327.390625 C 201.496094 327.390625 199.484375 329.402344 199.484375 331.882812 Z M 199.484375 331.882812 " fill-opacity="1" fill-rule="nonzero"/><path fill="#cc8306" d="M 210.75 322.84375 C 210.015625 322.84375 209.425781 322.25 209.425781 321.515625 L 209.425781 292.578125 C 209.425781 291.84375 210.015625 291.25 210.75 291.25 C 211.484375 291.25 212.078125 291.84375 212.078125 292.578125 L 212.078125 321.515625 C 212.078125 322.25 211.484375 322.84375 210.75 322.84375 Z M 210.75 322.84375 " fill-opacity="1" fill-rule="nonzero"/><path fill="#cc8306" d="M 213.113281 317.488281 C 213.363281 317.644531 213.597656 317.824219 213.8125 318.023438 C 214.027344 318.222656 214.222656 318.445312 214.394531 318.683594 C 214.566406 318.921875 214.714844 319.175781 214.835938 319.445312 C 214.957031 319.714844 215.054688 319.992188 215.121094 320.277344 C 215.1875 320.566406 215.226562 320.855469 215.238281 321.148438 C 215.25 321.445312 215.230469 321.738281 215.183594 322.027344 C 215.136719 322.320312 215.0625 322.601562 214.957031 322.878906 C 214.855469 323.15625 214.726562 323.417969 214.570312 323.667969 C 214.414062 323.921875 214.238281 324.152344 214.035156 324.371094 C 213.835938 324.585938 213.617188 324.78125 213.375 324.953125 C 213.136719 325.125 212.882812 325.273438 212.617188 325.394531 C 212.347656 325.515625 212.070312 325.613281 211.78125 325.679688 C 211.496094 325.746094 211.203125 325.785156 210.910156 325.796875 C 210.617188 325.808594 210.324219 325.789062 210.03125 325.742188 C 209.742188 325.695312 209.457031 325.617188 209.179688 325.515625 C 208.90625 325.414062 208.640625 325.285156 208.390625 325.128906 C 208.140625 324.972656 207.90625 324.796875 207.691406 324.59375 C 207.476562 324.394531 207.28125 324.171875 207.109375 323.933594 C 206.9375 323.695312 206.789062 323.441406 206.667969 323.171875 C 206.542969 322.90625 206.449219 322.628906 206.382812 322.339844 C 206.3125 322.054688 206.273438 321.761719 206.265625 321.46875 C 206.253906 321.171875 206.273438 320.878906 206.320312 320.589844 C 206.367188 320.296875 206.441406 320.015625 206.542969 319.738281 C 206.648438 319.460938 206.777344 319.199219 206.933594 318.949219 C 207.085938 318.699219 207.265625 318.464844 207.464844 318.25 C 207.667969 318.03125 207.886719 317.839844 208.125 317.667969 C 208.367188 317.492188 208.617188 317.347656 208.886719 317.222656 C 209.15625 317.101562 209.433594 317.007812 209.71875 316.9375 C 210.007812 316.871094 210.296875 316.832031 210.59375 316.820312 C 210.886719 316.8125 211.179688 316.828125 211.472656 316.878906 C 211.761719 316.925781 212.046875 317 212.320312 317.101562 C 212.597656 317.207031 212.863281 317.335938 213.113281 317.488281 Z M 213.113281 317.488281 " fill-opacity="1" fill-rule="nonzero"/><path fill="#cc8306" d="M 218.882812 349.828125 C 218.148438 349.828125 217.554688 349.234375 217.554688 348.5 L 217.554688 291.894531 C 217.554688 291.160156 218.148438 290.566406 218.882812 290.566406 C 219.617188 290.566406 220.210938 291.160156 220.210938 291.894531 L 220.210938 348.5 C 220.210938 349.234375 219.617188 349.828125 218.882812 349.828125 Z M 218.882812 349.828125 " fill-opacity="1" fill-rule="nonzero"/><path fill="#cc8306" d="M 223.035156 346.558594 C 223.148438 346.832031 223.230469 347.113281 223.289062 347.402344 C 223.347656 347.691406 223.375 347.980469 223.375 348.277344 C 223.375 348.570312 223.347656 348.863281 223.289062 349.152344 C 223.230469 349.441406 223.148438 349.722656 223.035156 349.996094 C 222.921875 350.265625 222.785156 350.527344 222.621094 350.769531 C 222.457031 351.015625 222.269531 351.242188 222.0625 351.453125 C 221.851562 351.660156 221.625 351.847656 221.378906 352.011719 C 221.136719 352.175781 220.875 352.3125 220.605469 352.425781 C 220.332031 352.539062 220.050781 352.621094 219.761719 352.679688 C 219.472656 352.738281 219.179688 352.765625 218.886719 352.765625 C 218.589844 352.765625 218.300781 352.738281 218.011719 352.679688 C 217.722656 352.621094 217.441406 352.539062 217.167969 352.425781 C 216.894531 352.3125 216.636719 352.175781 216.390625 352.011719 C 216.144531 351.847656 215.917969 351.660156 215.710938 351.453125 C 215.503906 351.242188 215.316406 351.015625 215.152344 350.769531 C 214.988281 350.527344 214.851562 350.265625 214.738281 349.996094 C 214.625 349.722656 214.539062 349.441406 214.480469 349.152344 C 214.425781 348.863281 214.394531 348.570312 214.394531 348.277344 C 214.394531 347.980469 214.425781 347.691406 214.480469 347.402344 C 214.539062 347.113281 214.625 346.832031 214.738281 346.558594 C 214.851562 346.285156 214.988281 346.027344 215.152344 345.78125 C 215.316406 345.535156 215.503906 345.308594 215.710938 345.101562 C 215.917969 344.894531 216.144531 344.707031 216.390625 344.542969 C 216.636719 344.378906 216.894531 344.242188 217.167969 344.128906 C 217.441406 344.015625 217.722656 343.929688 218.011719 343.871094 C 218.300781 343.816406 218.589844 343.785156 218.886719 343.785156 C 219.179688 343.785156 219.472656 343.816406 219.761719 343.871094 C 220.050781 343.929688 220.332031 344.015625 220.605469 344.128906 C 220.875 344.242188 221.136719 344.378906 221.378906 344.542969 C 221.625 344.707031 221.851562 344.894531 222.0625 345.101562 C 222.269531 345.308594 222.457031 345.535156 222.621094 345.78125 C 222.78125 346.027344 222.921875 346.285156 223.035156 346.558594 Z M 223.035156 346.558594 " fill-opacity="1" fill-rule="nonzero"/><path fill="#cc8306" d="M 304.25 313.53125 C 303.910156 313.53125 303.570312 313.402344 303.3125 313.140625 L 254.542969 264.371094 C 254.023438 263.851562 254.023438 263.011719 254.542969 262.496094 C 255.058594 261.976562 255.898438 261.976562 256.417969 262.496094 L 305.1875 311.265625 C 305.707031 311.785156 305.707031 312.625 305.1875 313.140625 C 304.929688 313.402344 304.59375 313.53125 304.25 313.53125 Z M 304.25 313.53125 " fill-opacity="1" fill-rule="nonzero"/><path fill="#cc8306" d="M 300.914062 315.222656 C 302.667969 316.972656 305.511719 316.972656 307.269531 315.222656 C 309.023438 313.46875 309.019531 310.625 307.269531 308.867188 C 305.515625 307.113281 302.671875 307.117188 300.914062 308.867188 C 299.160156 310.621094 299.164062 313.464844 300.914062 315.222656 Z M 300.914062 315.222656 " fill-opacity="1" fill-rule="nonzero"/><path fill="#cc8306" d="M 301.335938 301.132812 C 300.996094 301.132812 300.65625 301.003906 300.398438 300.742188 L 258.605469 258.953125 C 258.089844 258.433594 258.089844 257.59375 258.605469 257.074219 C 259.125 256.558594 259.964844 256.558594 260.484375 257.074219 L 302.273438 298.867188 C 302.792969 299.382812 302.792969 300.226562 302.273438 300.742188 C 302.011719 301.003906 301.675781 301.132812 301.335938 301.132812 Z M 301.335938 301.132812 " fill-opacity="1" fill-rule="nonzero"/><path fill="#cc8306" d="M 298.003906 302.820312 C 299.757812 304.574219 302.601562 304.574219 304.355469 302.820312 C 306.113281 301.070312 306.109375 298.226562 304.355469 296.46875 C 302.605469 294.714844 299.761719 294.71875 298.003906 296.46875 C 296.25 298.222656 296.253906 301.066406 298.003906 302.820312 Z M 298.003906 302.820312 " fill-opacity="1" fill-rule="nonzero"/><path fill="#cc8306" d="M 293.234375 278.125 C 292.894531 278.125 292.554688 277.996094 292.296875 277.734375 L 262.671875 248.109375 C 262.15625 247.589844 262.15625 246.75 262.671875 246.234375 C 263.191406 245.714844 264.03125 245.714844 264.546875 246.234375 L 294.175781 275.859375 C 294.691406 276.375 294.691406 277.21875 294.175781 277.734375 C 293.914062 277.996094 293.578125 278.125 293.234375 278.125 Z M 293.234375 278.125 " fill-opacity="1" fill-rule="nonzero"/><path fill="#cc8306" d="M 289.902344 279.8125 C 291.652344 281.566406 294.496094 281.566406 296.253906 279.8125 C 298.007812 278.0625 298.003906 275.21875 296.253906 273.460938 C 294.5 271.707031 291.65625 271.710938 289.902344 273.460938 C 288.144531 275.214844 288.148438 278.058594 289.902344 279.8125 Z M 289.902344 279.8125 " fill-opacity="1" fill-rule="nonzero"/><path fill="#cc8306" d="M 103.003906 151.59375 C 102.660156 151.59375 102.320312 151.464844 102.0625 151.203125 L 57.636719 106.773438 C 57.121094 106.257812 57.121094 105.417969 57.636719 104.898438 C 58.15625 104.382812 58.996094 104.382812 59.511719 104.898438 L 103.941406 149.328125 C 104.457031 149.84375 104.457031 150.683594 103.941406 151.203125 C 103.679688 151.464844 103.34375 151.59375 103.003906 151.59375 Z M 103.003906 151.59375 " fill-opacity="1" fill-rule="nonzero"/><path fill="#cc8306" d="M 61.910156 102.820312 C 60.160156 101.070312 57.3125 101.070312 55.558594 102.820312 C 53.804688 104.570312 53.804688 107.417969 55.558594 109.171875 C 57.308594 110.925781 60.152344 110.925781 61.910156 109.171875 C 63.660156 107.421875 63.660156 104.578125 61.910156 102.820312 Z M 61.910156 102.820312 " fill-opacity="1" fill-rule="nonzero"/><path fill="#cc8306" d="M 108.421875 145.492188 C 108.082031 145.492188 107.738281 145.363281 107.484375 145.101562 L 64.394531 102.015625 C 63.878906 101.496094 63.878906 100.65625 64.394531 100.140625 C 64.914062 99.621094 65.753906 99.621094 66.273438 100.140625 L 109.359375 143.226562 C 109.875 143.746094 109.875 144.585938 109.359375 145.101562 C 109.097656 145.363281 108.761719 145.492188 108.421875 145.492188 Z M 108.421875 145.492188 " fill-opacity="1" fill-rule="nonzero"/><path fill="#cc8306" d="M 68.667969 98.058594 C 66.917969 96.308594 64.074219 96.308594 62.316406 98.058594 C 60.566406 99.8125 60.566406 102.65625 62.316406 104.414062 C 64.070312 106.164062 66.914062 106.164062 68.667969 104.414062 C 70.421875 102.660156 70.421875 99.816406 68.667969 98.058594 Z M 68.667969 98.058594 " fill-opacity="1" fill-rule="nonzero"/><path fill="#cc8306" d="M 113.84375 140.066406 C 113.503906 140.066406 113.164062 139.941406 112.90625 139.679688 L 84.484375 111.257812 C 83.96875 110.738281 83.96875 109.898438 84.484375 109.378906 C 85.003906 108.863281 85.84375 108.863281 86.359375 109.378906 L 114.78125 137.804688 C 115.300781 138.320312 115.300781 139.160156 114.78125 139.679688 C 114.523438 139.941406 114.183594 140.066406 113.84375 140.066406 Z M 113.84375 140.066406 " fill-opacity="1" fill-rule="nonzero"/><path fill="#cc8306" d="M 88.757812 107.304688 C 87.007812 105.554688 84.160156 105.554688 82.40625 107.304688 C 80.648438 109.058594 80.652344 111.902344 82.40625 113.660156 C 84.15625 115.410156 87 115.410156 88.757812 113.660156 C 90.515625 111.90625 90.507812 109.0625 88.757812 107.304688 Z M 88.757812 107.304688 " fill-opacity="1" fill-rule="nonzero"/><path fill="#cc8306" d="M 84.421875 109.351562 C 84.222656 109.351562 84.019531 109.304688 83.828125 109.207031 C 83.175781 108.882812 82.910156 108.085938 83.238281 107.429688 L 89.914062 94.078125 C 90.238281 93.425781 91.035156 93.160156 91.691406 93.488281 C 92.34375 93.8125 92.609375 94.609375 92.285156 95.265625 L 85.609375 108.617188 C 85.375 109.078125 84.910156 109.351562 84.417969 109.351562 Z M 84.421875 109.351562 " fill-opacity="1" fill-rule="nonzero"/><path fill="#cc8306" d="M 95.011719 96.878906 C 96.125 94.664062 95.222656 91.964844 93.003906 90.855469 C 90.789062 89.742188 88.089844 90.644531 86.980469 92.863281 C 85.867188 95.078125 86.773438 97.777344 88.988281 98.886719 C 91.203125 100 93.902344 99.09375 95.011719 96.878906 Z M 95.011719 96.878906 " fill-opacity="1" fill-rule="nonzero"/><path fill="#cc8306" d="M 64.558594 99.4375 C 64.367188 99.4375 64.167969 99.390625 63.980469 99.304688 C 63.320312 98.980469 63.046875 98.1875 63.371094 97.53125 L 70.535156 82.839844 C 70.859375 82.179688 71.652344 81.90625 72.308594 82.226562 C 72.96875 82.550781 73.242188 83.34375 72.921875 84 L 65.753906 98.691406 C 65.523438 99.167969 65.050781 99.441406 64.558594 99.441406 Z M 64.558594 99.4375 " fill-opacity="1" fill-rule="nonzero"/><path fill="#cc8306" d="M 75.664062 85.589844 C 76.75 83.359375 75.828125 80.671875 73.597656 79.585938 C 71.367188 78.5 68.679688 79.421875 67.59375 81.652344 C 66.507812 83.882812 67.429688 86.570312 69.660156 87.65625 C 71.890625 88.738281 74.578125 87.820312 75.664062 85.589844 Z M 75.664062 85.589844 " fill-opacity="1" fill-rule="nonzero"/><path fill="#cc8306" d="M 54.652344 107.070312 C 54.601562 107.070312 54.550781 107.070312 54.5 107.0625 L 34.792969 104.832031 C 34.0625 104.75 33.539062 104.09375 33.625 103.363281 C 33.707031 102.632812 34.363281 102.113281 35.09375 102.195312 L 54.800781 104.425781 C 55.53125 104.511719 56.054688 105.164062 55.96875 105.894531 C 55.894531 106.570312 55.320312 107.070312 54.652344 107.070312 Z M 54.652344 107.070312 " fill-opacity="1" fill-rule="nonzero"/><path fill="#cc8306" d="M 35.671875 99.074219 C 33.207031 98.792969 30.984375 100.5625 30.707031 103.03125 C 30.425781 105.496094 32.195312 107.722656 34.664062 108 C 37.128906 108.28125 39.355469 106.511719 39.632812 104.042969 C 39.910156 101.574219 38.140625 99.351562 35.675781 99.074219 Z M 35.671875 99.074219 " fill-opacity="1" fill-rule="nonzero"/><path fill="#cc8306" d="M 29.3125 188.410156 C 28.960938 188.410156 28.609375 188.273438 28.347656 187.996094 C 27.84375 187.464844 27.863281 186.625 28.394531 186.121094 L 42.917969 172.339844 C 43.449219 171.835938 44.289062 171.855469 44.792969 172.386719 C 45.300781 172.917969 45.277344 173.757812 44.746094 174.265625 L 30.222656 188.042969 C 29.964844 188.285156 29.640625 188.40625 29.3125 188.40625 Z M 29.3125 188.410156 " fill-opacity="1" fill-rule="nonzero"/><path fill="#cc8306" d="M 46.769531 176.714844 C 48.566406 175.007812 48.644531 172.167969 46.9375 170.367188 C 45.226562 168.566406 42.386719 168.492188 40.585938 170.199219 C 38.789062 171.90625 38.710938 174.746094 40.417969 176.546875 C 42.128906 178.347656 44.96875 178.421875 46.769531 176.714844 Z M 46.769531 176.714844 " fill-opacity="1" fill-rule="nonzero"/><path fill="#cc8306" d="M 4.917969 208.738281 C 4.476562 208.738281 4.042969 208.515625 3.792969 208.113281 C 3.402344 207.492188 3.59375 206.671875 4.210938 206.289062 L 18.664062 197.253906 C 19.28125 196.863281 20.105469 197.054688 20.492188 197.675781 C 20.875 198.292969 20.691406 199.117188 20.070312 199.5 L 5.617188 208.535156 C 5.402344 208.671875 5.15625 208.738281 4.914062 208.738281 Z M 4.917969 208.738281 " fill-opacity="1" fill-rule="nonzero"/><path fill="#cc8306" d="M 2.730469 203.484375 C 0.628906 204.796875 -0.0117188 207.566406 1.300781 209.671875 C 2.613281 211.777344 5.382812 212.414062 7.488281 211.101562 C 9.589844 209.785156 10.230469 207.015625 8.917969 204.910156 C 7.605469 202.804688 4.835938 202.167969 2.730469 203.484375 Z M 2.730469 203.484375 " fill-opacity="1" fill-rule="nonzero"/><path fill="#cc8306" d="M 45.132812 221.722656 C 44.8125 221.722656 44.488281 221.605469 44.238281 221.371094 L 31.570312 209.796875 C 31.03125 209.300781 30.992188 208.460938 31.488281 207.917969 C 31.984375 207.378906 32.824219 207.339844 33.363281 207.835938 L 46.027344 219.414062 C 46.570312 219.90625 46.609375 220.75 46.113281 221.289062 C 45.851562 221.574219 45.492188 221.722656 45.136719 221.722656 Z M 45.132812 221.722656 " fill-opacity="1" fill-rule="nonzero"/><path fill="#cc8306" d="M 41.933594 223.558594 C 43.765625 225.230469 46.605469 225.105469 48.277344 223.273438 C 49.949219 221.441406 49.820312 218.601562 47.992188 216.929688 C 46.160156 215.257812 43.320312 215.386719 41.648438 217.214844 C 39.976562 219.039062 40.105469 221.886719 41.933594 223.558594 Z M 41.933594 223.558594 " fill-opacity="1" fill-rule="nonzero"/><path fill="#cc8306" d="M 83.027344 300.941406 C 82.421875 300.941406 81.875 300.523438 81.738281 299.90625 L 78.609375 286 C 78.449219 285.28125 78.898438 284.574219 79.613281 284.414062 C 80.332031 284.253906 81.039062 284.703125 81.203125 285.417969 L 84.328125 299.328125 C 84.488281 300.042969 84.042969 300.75 83.324219 300.910156 C 83.226562 300.933594 83.128906 300.941406 83.035156 300.941406 Z M 83.027344 300.941406 " fill-opacity="1" fill-rule="nonzero"/><path fill="#cc8306" d="M 84.328125 284.941406 C 83.785156 282.519531 81.382812 281 78.964844 281.542969 C 76.542969 282.085938 75.023438 284.488281 75.566406 286.910156 C 76.109375 289.328125 78.511719 290.851562 80.933594 290.308594 C 83.351562 289.761719 84.875 287.359375 84.328125 284.941406 Z M 84.328125 284.941406 " fill-opacity="1" fill-rule="nonzero"/><path fill="#cc8306" d="M 92.585938 323.085938 C 92.410156 323.085938 92.234375 323.050781 92.0625 322.980469 L 81.75 318.5625 C 81.078125 318.273438 80.765625 317.492188 81.050781 316.820312 C 81.339844 316.144531 82.117188 315.832031 82.792969 316.121094 L 93.105469 320.539062 C 93.777344 320.828125 94.09375 321.609375 93.804688 322.28125 C 93.589844 322.785156 93.101562 323.085938 92.585938 323.085938 Z M 92.585938 323.085938 " fill-opacity="1" fill-rule="nonzero"/><path fill="#cc8306" d="M 90.613281 325.796875 C 92.890625 326.777344 95.53125 325.71875 96.507812 323.441406 C 97.484375 321.164062 96.429688 318.523438 94.148438 317.542969 C 91.871094 316.566406 89.230469 317.625 88.253906 319.902344 C 87.277344 322.179688 88.332031 324.820312 90.613281 325.796875 Z M 90.613281 325.796875 " fill-opacity="1" fill-rule="nonzero"/><path fill="#cc8306" d="M 122.421875 316.386719 C 122.082031 316.386719 121.742188 316.257812 121.484375 315.996094 L 108.234375 302.746094 C 107.71875 302.230469 107.71875 301.386719 108.234375 300.871094 C 108.753906 300.351562 109.59375 300.351562 110.109375 300.871094 L 123.359375 314.121094 C 123.878906 314.636719 123.878906 315.476562 123.359375 315.996094 C 123.097656 316.257812 122.761719 316.386719 122.421875 316.386719 Z M 122.421875 316.386719 " fill-opacity="1" fill-rule="nonzero"/><path fill="#cc8306" d="M 119.085938 318.074219 C 120.839844 319.828125 123.683594 319.828125 125.4375 318.074219 C 127.195312 316.324219 127.191406 313.480469 125.4375 311.722656 C 123.6875 309.964844 120.84375 309.96875 119.085938 311.722656 C 117.332031 313.472656 117.335938 316.320312 119.085938 318.074219 Z M 119.085938 318.074219 " fill-opacity="1" fill-rule="nonzero"/><path fill="#cc8306" d="M 188.140625 334.21875 C 187.429688 334.21875 186.839844 333.65625 186.8125 332.9375 C 186.789062 332.203125 187.363281 331.589844 188.09375 331.566406 L 203.140625 331.039062 C 203.894531 331.015625 204.492188 331.589844 204.511719 332.320312 C 204.539062 333.054688 203.964844 333.667969 203.234375 333.691406 L 188.1875 334.21875 C 188.1875 334.21875 188.15625 334.21875 188.136719 334.21875 Z M 188.140625 334.21875 " fill-opacity="1" fill-rule="nonzero"/><path fill="#cc8306" d="M 188.210938 328.390625 C 185.734375 328.480469 183.792969 330.558594 183.882812 333.035156 C 183.96875 335.511719 186.050781 337.457031 188.527344 337.367188 C 191.003906 337.277344 192.945312 335.199219 192.855469 332.722656 C 192.769531 330.246094 190.691406 328.300781 188.210938 328.390625 Z M 188.210938 328.390625 " fill-opacity="1" fill-rule="nonzero"/><path fill="#cc8306" d="M 219.222656 352.578125 C 218.796875 352.578125 218.382812 352.375 218.125 352 C 217.714844 351.394531 217.867188 350.566406 218.476562 350.15625 L 231.886719 341.035156 C 232.492188 340.621094 233.320312 340.777344 233.730469 341.382812 C 234.144531 341.988281 233.988281 342.816406 233.382812 343.226562 L 219.96875 352.351562 C 219.738281 352.503906 219.484375 352.578125 219.226562 352.578125 Z M 219.222656 352.578125 " fill-opacity="1" fill-rule="nonzero"/><path fill="#cc8306" d="M 234.976562 345.972656 C 237.027344 344.578125 237.558594 341.78125 236.164062 339.734375 C 234.773438 337.679688 231.976562 337.148438 229.929688 338.542969 C 227.875 339.9375 227.34375 342.734375 228.738281 344.78125 C 230.132812 346.832031 232.925781 347.363281 234.976562 345.972656 Z M 234.976562 345.972656 " fill-opacity="1" fill-rule="nonzero"/><path fill="#cc8306" d="M 296.480469 277.277344 C 296.054688 277.277344 295.640625 277.082031 295.386719 276.703125 C 294.96875 276.097656 295.125 275.273438 295.726562 274.859375 L 308.476562 266.097656 C 309.078125 265.679688 309.90625 265.835938 310.320312 266.4375 C 310.738281 267.042969 310.582031 267.867188 309.980469 268.28125 L 297.230469 277.042969 C 297 277.203125 296.738281 277.277344 296.480469 277.277344 Z M 296.480469 277.277344 " fill-opacity="1" fill-rule="nonzero"/><path fill="#cc8306" d="M 311.585938 271.015625 C 313.628906 269.609375 314.148438 266.8125 312.742188 264.769531 C 311.332031 262.726562 308.539062 262.207031 306.492188 263.613281 C 304.449219 265.019531 303.933594 267.816406 305.339844 269.859375 C 306.746094 271.90625 309.542969 272.421875 311.585938 271.015625 Z M 311.585938 271.015625 " fill-opacity="1" fill-rule="nonzero"/><path fill="#cc8306" d="M 304.582031 300.113281 C 304.277344 300.113281 303.96875 300.007812 303.71875 299.796875 C 303.164062 299.316406 303.101562 298.480469 303.574219 297.925781 L 312.996094 286.933594 C 313.476562 286.375 314.3125 286.3125 314.867188 286.785156 C 315.425781 287.261719 315.488281 288.101562 315.015625 288.65625 L 305.589844 299.648438 C 305.332031 299.957031 304.957031 300.113281 304.582031 300.113281 Z M 304.582031 300.113281 " fill-opacity="1" fill-rule="nonzero"/><path fill="#cc8306" d="M 317.265625 290.886719 C 318.878906 289.003906 318.664062 286.167969 316.777344 284.554688 C 314.894531 282.941406 312.058594 283.160156 310.449219 285.042969 C 308.835938 286.925781 309.054688 289.761719 310.933594 291.375 C 312.820312 292.988281 315.65625 292.769531 317.265625 290.886719 Z M 317.265625 290.886719 " fill-opacity="1" fill-rule="nonzero"/><path fill="#cc8306" d="M 295.097656 325.175781 C 294.738281 325.175781 294.386719 325.035156 294.125 324.75 C 293.625 324.214844 293.65625 323.375 294.195312 322.875 L 305.300781 312.5625 C 305.835938 312.0625 306.675781 312.09375 307.175781 312.632812 C 307.675781 313.167969 307.644531 314.007812 307.105469 314.507812 L 296 324.820312 C 295.746094 325.058594 295.421875 325.175781 295.097656 325.175781 Z M 295.097656 325.175781 " fill-opacity="1" fill-rule="nonzero"/><path fill="#cc8306" d="M 292.207031 320.40625 C 290.386719 322.089844 290.28125 324.9375 291.972656 326.753906 C 293.660156 328.574219 296.5 328.679688 298.320312 326.988281 C 300.136719 325.304688 300.242188 322.457031 298.554688 320.640625 C 296.867188 318.824219 294.023438 318.714844 292.207031 320.40625 Z M 292.207031 320.40625 " fill-opacity="1" fill-rule="nonzero"/></svg>