<svg width="207" height="50" viewBox="0 0 207 50" fill="none" xmlns="http://www.w3.org/2000/svg">
<path d="M61.52 32V20.224H65.04C66.224 20.224 67.232 20.4 68.064 20.752C68.896 21.104 69.5627 21.5733 70.064 22.16C70.576 22.7467 70.9493 23.4027 71.184 24.128C71.4187 24.8533 71.536 25.584 71.536 26.32C71.536 27.1947 71.376 27.984 71.056 28.688C70.7467 29.3813 70.32 29.9787 69.776 30.48C69.232 30.9707 68.6027 31.3493 67.888 31.616C67.1733 31.872 66.416 32 65.616 32H61.52ZM63.84 29.76H65.216C65.8027 29.76 66.336 29.6853 66.816 29.536C67.296 29.376 67.7067 29.1467 68.048 28.848C68.4 28.5493 68.6667 28.176 68.848 27.728C69.04 27.2693 69.136 26.7467 69.136 26.16C69.136 25.392 69.008 24.768 68.752 24.288C68.5067 23.7973 68.1973 23.4187 67.824 23.152C67.4613 22.8853 67.088 22.704 66.704 22.608C66.32 22.5013 65.9947 22.448 65.728 22.448H63.84V29.76ZM73.4957 25.008H75.7357V32H73.4957V25.008ZM76.9997 22.016L74.6317 24.176H73.2717L74.5197 22.016H76.9997ZM80.0746 25.008L80.2506 26.256L80.2186 26.144C80.464 25.7067 80.8106 25.3547 81.2586 25.088C81.7066 24.8107 82.256 24.672 82.9066 24.672C83.568 24.672 84.1173 24.8693 84.5546 25.264C85.0026 25.648 85.232 26.1493 85.2426 26.768V32H83.0026V27.6C82.992 27.2907 82.9066 27.0453 82.7466 26.864C82.5973 26.672 82.3413 26.576 81.9786 26.576C81.6373 26.576 81.3386 26.688 81.0826 26.912C80.8266 27.136 80.6293 27.44 80.4906 27.824C80.352 28.208 80.2826 28.6507 80.2826 29.152V32H78.0426V25.008H80.0746ZM90.4866 32.192C89.836 32.192 89.244 32.064 88.7106 31.808C88.188 31.5413 87.772 31.136 87.4626 30.592C87.1533 30.048 86.9986 29.3547 86.9986 28.512C86.9986 27.7227 87.1586 27.04 87.4786 26.464C87.7986 25.888 88.22 25.4453 88.7426 25.136C89.2653 24.816 89.82 24.656 90.4066 24.656C91.1 24.656 91.6226 24.7733 91.9746 25.008C92.3373 25.232 92.636 25.4827 92.8706 25.76L92.7746 26.032L92.9826 25.008H95.0626V32H92.8226V30.48L92.9986 30.96C92.9773 30.96 92.9133 31.024 92.8066 31.152C92.7 31.2693 92.54 31.4133 92.3266 31.584C92.124 31.744 91.868 31.8827 91.5586 32C91.26 32.128 90.9026 32.192 90.4866 32.192ZM91.1266 30.368C91.3933 30.368 91.6333 30.3307 91.8466 30.256C92.06 30.1707 92.2466 30.0533 92.4066 29.904C92.5666 29.744 92.7053 29.5467 92.8226 29.312V27.6C92.7373 27.3653 92.6093 27.168 92.4386 27.008C92.268 26.8373 92.0653 26.7093 91.8306 26.624C91.596 26.528 91.3346 26.48 91.0466 26.48C90.7266 26.48 90.428 26.5653 90.1506 26.736C89.884 26.896 89.6706 27.12 89.5106 27.408C89.3506 27.696 89.2706 28.0267 89.2706 28.4C89.2706 28.7733 89.356 29.1093 89.5266 29.408C89.6973 29.7067 89.9213 29.9413 90.1986 30.112C90.4866 30.2827 90.796 30.368 91.1266 30.368ZM99.4027 25.008L99.5787 26.24L99.5467 26.144C99.8241 25.6747 100.171 25.312 100.587 25.056C101.003 24.7893 101.504 24.656 102.091 24.656C102.475 24.656 102.811 24.7093 103.099 24.816C103.397 24.9227 103.648 25.0827 103.851 25.296C104.053 25.4987 104.192 25.7653 104.267 26.096L104.187 26.112C104.485 25.6747 104.843 25.3227 105.259 25.056C105.685 24.7893 106.128 24.656 106.587 24.656C107.28 24.656 107.829 24.8533 108.235 25.248C108.651 25.632 108.864 26.1333 108.875 26.752V32H106.651V27.68C106.64 27.3707 106.592 27.12 106.507 26.928C106.421 26.7253 106.224 26.6133 105.915 26.592C105.552 26.592 105.243 26.72 104.987 26.976C104.741 27.2213 104.555 27.5413 104.427 27.936C104.309 28.32 104.251 28.72 104.251 29.136V32H102.011V27.68C102 27.3707 101.941 27.12 101.835 26.928C101.739 26.7253 101.536 26.6133 101.227 26.592C100.875 26.592 100.576 26.72 100.331 26.976C100.096 27.2213 99.9147 27.536 99.7867 27.92C99.6694 28.304 99.6107 28.6987 99.6107 29.104V32H97.3707V25.008H99.4027ZM110.639 28.416C110.639 27.7013 110.805 27.0613 111.135 26.496C111.477 25.9307 111.951 25.488 112.559 25.168C113.167 24.8373 113.866 24.672 114.655 24.672C115.455 24.672 116.149 24.8373 116.735 25.168C117.322 25.488 117.77 25.9307 118.079 26.496C118.399 27.0613 118.559 27.7013 118.559 28.416C118.559 29.1307 118.399 29.776 118.079 30.352C117.77 30.9173 117.322 31.3653 116.735 31.696C116.149 32.0267 115.445 32.192 114.623 32.192C113.855 32.192 113.167 32.0427 112.559 31.744C111.962 31.4453 111.493 31.0133 111.151 30.448C110.81 29.8827 110.639 29.2053 110.639 28.416ZM112.895 28.432C112.895 28.7947 112.97 29.1253 113.119 29.424C113.269 29.712 113.471 29.9413 113.727 30.112C113.983 30.2827 114.271 30.368 114.591 30.368C114.943 30.368 115.247 30.2827 115.503 30.112C115.759 29.9413 115.957 29.712 116.095 29.424C116.234 29.1253 116.303 28.7947 116.303 28.432C116.303 28.0587 116.234 27.728 116.095 27.44C115.957 27.152 115.759 26.9227 115.503 26.752C115.247 26.5813 114.943 26.496 114.591 26.496C114.271 26.496 113.983 26.5813 113.727 26.752C113.471 26.9227 113.269 27.152 113.119 27.44C112.97 27.728 112.895 28.0587 112.895 28.432ZM122.596 32.144C122.02 32.144 121.481 32.0427 120.98 31.84C120.489 31.6373 120.073 31.3547 119.732 30.992L120.66 29.76C121.001 30.0693 121.316 30.2933 121.604 30.432C121.903 30.56 122.169 30.624 122.404 30.624C122.585 30.624 122.745 30.608 122.884 30.576C123.033 30.5333 123.151 30.4747 123.236 30.4C123.321 30.3147 123.364 30.208 123.364 30.08C123.364 29.8987 123.289 29.7547 123.14 29.648C123.001 29.5413 122.82 29.456 122.596 29.392C122.372 29.3173 122.132 29.2427 121.876 29.168C121.236 28.9653 120.772 28.672 120.484 28.288C120.207 27.8933 120.068 27.4667 120.068 27.008C120.068 26.656 120.159 26.304 120.34 25.952C120.532 25.5893 120.831 25.2907 121.236 25.056C121.652 24.8107 122.185 24.688 122.836 24.688C123.423 24.688 123.919 24.7467 124.324 24.864C124.729 24.9813 125.113 25.1733 125.476 25.44L124.628 26.752C124.425 26.592 124.196 26.4587 123.94 26.352C123.695 26.2347 123.465 26.1707 123.252 26.16C123.06 26.1493 122.895 26.1707 122.756 26.224C122.628 26.2773 122.527 26.3467 122.452 26.432C122.377 26.5173 122.34 26.608 122.34 26.704C122.329 26.9067 122.404 27.0667 122.564 27.184C122.735 27.3013 122.948 27.392 123.204 27.456C123.46 27.52 123.711 27.5947 123.956 27.68C124.297 27.7867 124.591 27.9307 124.836 28.112C125.081 28.2933 125.268 28.512 125.396 28.768C125.535 29.0133 125.604 29.312 125.604 29.664C125.604 30.0907 125.492 30.496 125.268 30.88C125.055 31.2533 124.724 31.5573 124.276 31.792C123.839 32.0267 123.279 32.144 122.596 32.144ZM136.619 20.224C137.355 20.224 138.011 20.32 138.587 20.512C139.163 20.6933 139.643 20.96 140.027 21.312C140.422 21.6533 140.721 22.0693 140.923 22.56C141.126 23.04 141.227 23.584 141.227 24.192C141.227 24.672 141.153 25.152 141.003 25.632C140.865 26.112 140.63 26.5493 140.299 26.944C139.979 27.3387 139.553 27.6587 139.019 27.904C138.486 28.1387 137.825 28.256 137.035 28.256H135.371V32H133.051V20.224H136.619ZM137.019 26.016C137.371 26.016 137.665 25.9573 137.899 25.84C138.134 25.7227 138.315 25.5733 138.443 25.392C138.582 25.2107 138.678 25.024 138.731 24.832C138.795 24.6293 138.827 24.4427 138.827 24.272C138.827 24.144 138.806 23.984 138.763 23.792C138.731 23.5893 138.657 23.3867 138.539 23.184C138.422 22.9813 138.241 22.8107 137.995 22.672C137.761 22.5333 137.441 22.464 137.035 22.464H135.371V26.016H137.019ZM139.195 27.456L142.107 32H139.403L136.427 27.52L139.195 27.456ZM146.779 32.192C145.926 32.192 145.201 32.032 144.603 31.712C144.017 31.392 143.569 30.9493 143.259 30.384C142.95 29.8187 142.795 29.168 142.795 28.432C142.795 27.728 142.977 27.0933 143.339 26.528C143.702 25.9627 144.187 25.5147 144.795 25.184C145.403 24.8427 146.081 24.672 146.827 24.672C147.83 24.672 148.651 24.9653 149.291 25.552C149.942 26.128 150.363 26.9653 150.555 28.064L145.115 29.792L144.619 28.576L148.555 27.248L148.091 27.456C148.006 27.1787 147.851 26.9387 147.627 26.736C147.414 26.5227 147.089 26.416 146.651 26.416C146.321 26.416 146.027 26.496 145.771 26.656C145.526 26.8053 145.334 27.024 145.195 27.312C145.067 27.5893 145.003 27.92 145.003 28.304C145.003 28.7413 145.083 29.1093 145.243 29.408C145.403 29.696 145.622 29.9147 145.899 30.064C146.177 30.2133 146.486 30.288 146.827 30.288C147.073 30.288 147.307 30.2453 147.531 30.16C147.766 30.0747 147.995 29.9627 148.219 29.824L149.211 31.488C148.838 31.7013 148.433 31.872 147.995 32C147.569 32.128 147.163 32.192 146.779 32.192ZM152.183 19.376H154.423V32H152.183V19.376ZM156.73 25.008H158.97V32H156.73V25.008ZM156.682 22.528C156.682 22.1973 156.81 21.9253 157.066 21.712C157.333 21.4987 157.615 21.392 157.914 21.392C158.213 21.392 158.485 21.4987 158.73 21.712C158.986 21.9253 159.114 22.1973 159.114 22.528C159.114 22.8587 158.986 23.1307 158.73 23.344C158.485 23.5467 158.213 23.648 157.914 23.648C157.615 23.648 157.333 23.5467 157.066 23.344C156.81 23.1307 156.682 22.8587 156.682 22.528ZM164.893 35.52C164.264 35.52 163.73 35.4453 163.293 35.296C162.866 35.1467 162.504 34.9653 162.205 34.752C161.906 34.5387 161.64 34.336 161.405 34.144L162.717 32.608C162.962 32.832 163.245 33.0453 163.565 33.248C163.896 33.4613 164.328 33.568 164.861 33.568C165.213 33.568 165.538 33.504 165.837 33.376C166.146 33.2587 166.392 33.0827 166.573 32.848C166.765 32.6133 166.861 32.32 166.861 31.968V30.432L166.941 30.832C166.77 31.1947 166.461 31.5147 166.013 31.792C165.565 32.0587 164.978 32.192 164.253 32.192C163.624 32.192 163.037 32.032 162.493 31.712C161.96 31.3813 161.533 30.9387 161.213 30.384C160.893 29.8187 160.733 29.1787 160.733 28.464C160.733 27.728 160.904 27.0773 161.245 26.512C161.586 25.936 162.029 25.4827 162.573 25.152C163.117 24.8213 163.693 24.656 164.301 24.656C164.909 24.656 165.432 24.7467 165.869 24.928C166.317 25.0987 166.653 25.312 166.877 25.568L166.797 25.776L167.037 25.008H169.101V32C169.101 32.6827 168.909 33.2853 168.525 33.808C168.141 34.3413 167.629 34.7573 166.989 35.056C166.36 35.3653 165.661 35.52 164.893 35.52ZM162.989 28.4C162.989 28.7733 163.074 29.1093 163.245 29.408C163.416 29.7067 163.645 29.9413 163.933 30.112C164.232 30.2827 164.562 30.368 164.925 30.368C165.234 30.368 165.506 30.3307 165.741 30.256C165.986 30.1707 166.2 30.0533 166.381 29.904C166.573 29.744 166.733 29.5467 166.861 29.312V27.6C166.765 27.3653 166.621 27.168 166.429 27.008C166.237 26.8373 166.013 26.7093 165.757 26.624C165.512 26.528 165.234 26.48 164.925 26.48C164.562 26.48 164.232 26.5653 163.933 26.736C163.645 26.896 163.416 27.12 163.245 27.408C163.074 27.696 162.989 28.0267 162.989 28.4ZM174.346 32.192C173.695 32.192 173.103 32.064 172.57 31.808C172.047 31.5413 171.631 31.136 171.322 30.592C171.013 30.048 170.858 29.3547 170.858 28.512C170.858 27.7227 171.018 27.04 171.338 26.464C171.658 25.888 172.079 25.4453 172.602 25.136C173.125 24.816 173.679 24.656 174.266 24.656C174.959 24.656 175.482 24.7733 175.834 25.008C176.197 25.232 176.495 25.4827 176.73 25.76L176.634 26.032L176.842 25.008H178.922V32H176.682V30.48L176.858 30.96C176.837 30.96 176.773 31.024 176.666 31.152C176.559 31.2693 176.399 31.4133 176.186 31.584C175.983 31.744 175.727 31.8827 175.418 32C175.119 32.128 174.762 32.192 174.346 32.192ZM174.986 30.368C175.253 30.368 175.493 30.3307 175.706 30.256C175.919 30.1707 176.106 30.0533 176.266 29.904C176.426 29.744 176.565 29.5467 176.682 29.312V27.6C176.597 27.3653 176.469 27.168 176.298 27.008C176.127 26.8373 175.925 26.7093 175.69 26.624C175.455 26.528 175.194 26.48 174.906 26.48C174.586 26.48 174.287 26.5653 174.01 26.736C173.743 26.896 173.53 27.12 173.37 27.408C173.21 27.696 173.13 28.0267 173.13 28.4C173.13 28.7733 173.215 29.1093 173.386 29.408C173.557 29.7067 173.781 29.9413 174.058 30.112C174.346 30.2827 174.655 30.368 174.986 30.368ZM184.078 32.192C183.427 32.192 182.846 32.0427 182.334 31.744C181.822 31.4347 181.417 30.992 181.118 30.416C180.83 29.84 180.686 29.1573 180.686 28.368C180.686 27.5787 180.846 26.9067 181.166 26.352C181.486 25.7973 181.923 25.376 182.478 25.088C183.033 24.8 183.662 24.656 184.366 24.656C184.814 24.656 185.241 24.7253 185.646 24.864C186.062 25.0027 186.409 25.216 186.686 25.504V26.208V19.376H188.91V32H186.67V30.64L186.846 31.12C186.483 31.4187 186.078 31.6747 185.63 31.888C185.182 32.0907 184.665 32.192 184.078 32.192ZM184.814 30.304C185.113 30.304 185.374 30.2667 185.598 30.192C185.833 30.1067 186.035 29.9893 186.206 29.84C186.387 29.68 186.542 29.4827 186.67 29.248V27.536C186.585 27.3013 186.451 27.104 186.27 26.944C186.099 26.7733 185.886 26.6453 185.63 26.56C185.385 26.464 185.113 26.416 184.814 26.416C184.483 26.416 184.174 26.5013 183.886 26.672C183.609 26.832 183.385 27.056 183.214 27.344C183.043 27.632 182.958 27.9627 182.958 28.336C182.958 28.7093 183.043 29.0453 183.214 29.344C183.385 29.6427 183.609 29.8773 183.886 30.048C184.174 30.2187 184.483 30.304 184.814 30.304ZM190.67 28.416C190.67 27.7013 190.836 27.0613 191.166 26.496C191.508 25.9307 191.982 25.488 192.59 25.168C193.198 24.8373 193.897 24.672 194.686 24.672C195.486 24.672 196.18 24.8373 196.766 25.168C197.353 25.488 197.801 25.9307 198.11 26.496C198.43 27.0613 198.59 27.7013 198.59 28.416C198.59 29.1307 198.43 29.776 198.11 30.352C197.801 30.9173 197.353 31.3653 196.766 31.696C196.18 32.0267 195.476 32.192 194.654 32.192C193.886 32.192 193.198 32.0427 192.59 31.744C191.993 31.4453 191.524 31.0133 191.182 30.448C190.841 29.8827 190.67 29.2053 190.67 28.416ZM192.926 28.432C192.926 28.7947 193.001 29.1253 193.15 29.424C193.3 29.712 193.502 29.9413 193.758 30.112C194.014 30.2827 194.302 30.368 194.622 30.368C194.974 30.368 195.278 30.2827 195.534 30.112C195.79 29.9413 195.988 29.712 196.126 29.424C196.265 29.1253 196.334 28.7947 196.334 28.432C196.334 28.0587 196.265 27.728 196.126 27.44C195.988 27.152 195.79 26.9227 195.534 26.752C195.278 26.5813 194.974 26.496 194.622 26.496C194.302 26.496 194.014 26.5813 193.758 26.752C193.502 26.9227 193.3 27.152 193.15 27.44C193.001 27.728 192.926 28.0587 192.926 28.432ZM202.627 32.144C202.051 32.144 201.512 32.0427 201.011 31.84C200.52 31.6373 200.104 31.3547 199.763 30.992L200.691 29.76C201.032 30.0693 201.347 30.2933 201.635 30.432C201.934 30.56 202.2 30.624 202.435 30.624C202.616 30.624 202.776 30.608 202.915 30.576C203.064 30.5333 203.182 30.4747 203.267 30.4C203.352 30.3147 203.395 30.208 203.395 30.08C203.395 29.8987 203.32 29.7547 203.171 29.648C203.032 29.5413 202.851 29.456 202.627 29.392C202.403 29.3173 202.163 29.2427 201.907 29.168C201.267 28.9653 200.803 28.672 200.515 28.288C200.238 27.8933 200.099 27.4667 200.099 27.008C200.099 26.656 200.19 26.304 200.371 25.952C200.563 25.5893 200.862 25.2907 201.267 25.056C201.683 24.8107 202.216 24.688 202.867 24.688C203.454 24.688 203.95 24.7467 204.355 24.864C204.76 24.9813 205.144 25.1733 205.507 25.44L204.659 26.752C204.456 26.592 204.227 26.4587 203.971 26.352C203.726 26.2347 203.496 26.1707 203.283 26.16C203.091 26.1493 202.926 26.1707 202.787 26.224C202.659 26.2773 202.558 26.3467 202.483 26.432C202.408 26.5173 202.371 26.608 202.371 26.704C202.36 26.9067 202.435 27.0667 202.595 27.184C202.766 27.3013 202.979 27.392 203.235 27.456C203.491 27.52 203.742 27.5947 203.987 27.68C204.328 27.7867 204.622 27.9307 204.867 28.112C205.112 28.2933 205.299 28.512 205.427 28.768C205.566 29.0133 205.635 29.312 205.635 29.664C205.635 30.0907 205.523 30.496 205.299 30.88C205.086 31.2533 204.755 31.5573 204.307 31.792C203.87 32.0267 203.31 32.144 202.627 32.144Z" fill="#CC8306"/>
<path d="M32.1374 38.9485H17.5004L10.1816 26.2724L17.5004 13.5964H32.1374L39.4561 26.2724L32.1374 38.9485ZM17.8405 38.3584H31.7967L38.7749 26.2724L31.7967 14.186H17.8405L10.8624 26.2724L17.8405 38.3584Z" fill="#CC8306"/>
<path d="M44.8804 26.787C44.8804 26.787 44.8751 26.787 44.872 26.787L38.9356 26.5177C38.8376 26.513 38.7621 26.4302 38.7668 26.3328C38.7715 26.2354 38.8543 26.1594 38.9512 26.1641L44.8882 26.4339C44.9861 26.4386 45.0616 26.5214 45.0569 26.6183C45.0527 26.7136 44.9741 26.787 44.8798 26.787H44.8804Z" fill="#CC8306"/>
<path d="M44.8229 27.2063C45.1531 27.2214 45.4333 26.9656 45.4484 26.6354C45.463 26.3052 45.2078 26.025 44.8771 26.0104C44.5469 25.9958 44.2666 26.251 44.2521 26.5813C44.2375 26.9115 44.4927 27.1917 44.8229 27.2063Z" fill="#CC8306"/>
<path d="M47.1407 28.0656H47.1376L38.1266 27.9208C38.0287 27.9187 37.9511 27.8385 37.9527 27.7406C37.9547 27.6443 38.0329 27.5667 38.1297 27.5667H38.1329L47.1433 27.712C47.2412 27.7135 47.3193 27.7937 47.3172 27.8917C47.3157 27.9885 47.237 28.0656 47.1407 28.0656Z" fill="#CC8306"/>
<path d="M47.6298 27.5906C47.6491 27.625 47.6652 27.6604 47.6777 27.6979C47.6902 27.7354 47.6991 27.7735 47.7043 27.8125C47.7089 27.8511 47.71 27.8906 47.7074 27.9297C47.7048 27.9688 47.6985 28.0073 47.6881 28.0453C47.6777 28.0834 47.6636 28.1198 47.6464 28.1552C47.6287 28.1901 47.6079 28.2235 47.5839 28.2547C47.56 28.2854 47.5329 28.3141 47.5032 28.3401C47.4741 28.3656 47.4418 28.3886 47.4079 28.4078C47.3735 28.4276 47.3381 28.4438 47.3006 28.4563C47.2636 28.4688 47.2256 28.4771 47.1866 28.4823C47.1475 28.4875 47.1084 28.4886 47.0688 28.486C47.0298 28.4828 46.9912 28.4766 46.9532 28.4662C46.9152 28.4558 46.8787 28.4422 46.8438 28.4245C46.8084 28.4073 46.7751 28.3865 46.7444 28.362C46.7131 28.338 46.6845 28.3115 46.6589 28.2818C46.6329 28.2521 46.6105 28.2203 46.5907 28.186C46.5714 28.1521 46.5553 28.1162 46.5428 28.0792C46.5303 28.0417 46.5214 28.0037 46.5162 27.9646C46.5116 27.9255 46.5105 27.8865 46.5131 27.8474C46.5157 27.8084 46.522 27.7698 46.5324 27.7318C46.5428 27.6938 46.5569 27.6573 46.5741 27.6219C46.5918 27.5865 46.6126 27.5537 46.6366 27.5224C46.6605 27.4912 46.6876 27.463 46.7168 27.437C46.7464 27.4115 46.7787 27.3886 46.8126 27.3693C46.847 27.3495 46.8824 27.3334 46.9199 27.3209C46.9569 27.3084 46.9949 27.2995 47.0339 27.2948C47.073 27.2896 47.1121 27.2886 47.1511 27.2912C47.1907 27.2938 47.2293 27.3005 47.2673 27.311C47.3048 27.3209 47.3418 27.3349 47.3767 27.3526C47.4121 27.3698 47.4449 27.3906 47.4761 27.4146C47.5074 27.4386 47.536 27.4656 47.5616 27.4953C47.5876 27.525 47.61 27.5568 47.6298 27.5906Z" fill="#CC8306"/>
<path d="M44.6977 29.6521C44.6977 29.6521 44.6941 29.6521 44.6925 29.6521L37.5821 29.4396C37.4842 29.4365 37.4076 29.3552 37.4102 29.2573C37.4133 29.162 37.492 29.0859 37.5873 29.0859C37.5894 29.0859 37.591 29.0859 37.5925 29.0859L44.7029 29.2979C44.8008 29.301 44.8779 29.3823 44.8748 29.4802C44.8717 29.576 44.7936 29.6521 44.6977 29.6521Z" fill="#CC8306"/>
<path d="M44.6498 30.0724C44.9805 30.0823 45.2566 29.8224 45.2665 29.4922C45.2764 29.162 45.0165 28.8859 44.6863 28.8755C44.3555 28.8656 44.0795 29.126 44.0696 29.4562C44.0597 29.7865 44.3196 30.0625 44.6498 30.0724Z" fill="#CC8306"/>
<path d="M45.1392 26.9104C45.0855 26.9104 45.0319 26.8854 44.997 26.8391C44.9386 26.7604 44.9548 26.6495 45.0329 26.5911L49.2407 23.451C49.3194 23.3927 49.4303 23.4083 49.4886 23.487C49.547 23.5656 49.5313 23.6766 49.4527 23.7349L45.2449 26.875C45.2131 26.8984 45.1756 26.9104 45.1392 26.9104Z" fill="#CC8306"/>
<path d="M49.6807 24.0912C49.9458 23.8933 50.0005 23.5183 49.8025 23.2526C49.6046 22.988 49.2296 22.9334 48.964 23.1313C48.6994 23.3292 48.6447 23.7042 48.8426 23.9693C49.04 24.2344 49.4156 24.2891 49.6807 24.0912Z" fill="#CC8306"/>
<path d="M47.3735 28.1036C47.3204 28.1036 47.2678 28.0802 47.2334 28.0344C47.1735 27.9573 47.1876 27.8458 47.2652 27.7865L48.8027 26.5984C48.8797 26.5391 48.9912 26.5531 49.0511 26.6302C49.1105 26.7073 49.0964 26.8187 49.0193 26.8786L47.4813 28.0667C47.449 28.0911 47.4115 28.1036 47.3735 28.1036Z" fill="#CC8306"/>
<path d="M49.2536 27.2307C49.5156 27.0281 49.5635 26.6526 49.362 26.3906C49.1594 26.1286 48.7838 26.0812 48.5219 26.2828C48.2599 26.4849 48.212 26.8609 48.4141 27.1229C48.6156 27.3844 48.9922 27.4323 49.2536 27.2307Z" fill="#CC8306"/>
<path d="M48.5473 31.4474C48.5208 31.4474 48.4937 31.4417 48.4682 31.4287L44.8567 29.6224C44.7692 29.5787 44.7338 29.4724 44.7775 29.3849C44.8213 29.2974 44.9275 29.262 45.015 29.3057L48.627 31.112C48.714 31.1552 48.7494 31.2615 48.7057 31.3495C48.6744 31.4115 48.6119 31.4474 48.5473 31.4474Z" fill="#CC8306"/>
<path d="M48.2529 31.7922C48.5482 31.9406 48.9081 31.8203 49.056 31.5245C49.2039 31.2292 49.0836 30.8693 48.7883 30.7214C48.493 30.5735 48.1331 30.6938 47.9847 30.9891C47.8367 31.2844 47.9571 31.6443 48.2529 31.7922Z" fill="#CC8306"/>
<path d="M32.1497 14.2484H31.9862C31.8882 14.2484 31.8091 14.1693 31.8091 14.0713C31.8091 13.9734 31.8882 13.8948 31.9862 13.8948H32.0034L38.4445 7.45363C38.5132 7.38435 38.6252 7.38435 38.6945 7.45363C38.7632 7.52238 38.7632 7.63488 38.6945 7.70363L32.1497 14.2484Z" fill="#CC8306"/>
<path d="M38.971 8.02343C39.2043 7.78957 39.2043 7.4104 38.971 7.17655C38.7371 6.9427 38.358 6.9427 38.1241 7.17655C37.8903 7.40988 37.8903 7.78905 38.1241 8.02343C38.3575 8.25676 38.7366 8.25676 38.971 8.02343Z" fill="#CC8306"/>
<path d="M32.9798 16.0558C32.9345 16.0558 32.8892 16.0386 32.8548 16.0037C32.786 15.9349 32.786 15.8229 32.8548 15.7537L36.7449 11.8641C36.8136 11.7948 36.9261 11.7948 36.9949 11.8641C37.0642 11.9328 37.0642 12.0448 36.9949 12.1141L33.1048 16.0037C33.0704 16.0386 33.0251 16.0558 32.9798 16.0558Z" fill="#CC8306"/>
<path d="M37.2718 12.4328C37.5056 12.1995 37.5056 11.8203 37.2718 11.586C37.0384 11.3521 36.6593 11.3526 36.4249 11.586C36.1905 11.8198 36.1916 12.199 36.4249 12.4328C36.6588 12.6672 37.0379 12.6667 37.2718 12.4328Z" fill="#CC8306"/>
<path d="M29.9975 13.9771C29.9485 13.9771 29.8991 13.9567 29.8647 13.9172C29.8001 13.8432 29.8079 13.7317 29.8808 13.6677L30.5996 13.0385L33.8074 9.8307C33.8767 9.76143 33.9886 9.76143 34.0574 9.8307C34.1267 9.89945 34.1267 10.012 34.0574 10.0807L30.8371 13.3005L30.1142 13.9328C30.0803 13.9625 30.0392 13.9765 29.9975 13.9765V13.9771Z" fill="#CC8306"/>
<path d="M34.3351 10.4005C34.5684 10.1667 34.5684 9.78749 34.3351 9.55364C34.1012 9.31926 33.7221 9.31978 33.4877 9.55364C33.2538 9.78697 33.2544 10.1661 33.4877 10.4005C33.7215 10.6344 34.1007 10.6338 34.3351 10.4005Z" fill="#CC8306"/>
<path d="M34.0677 9.85259C33.9698 9.85259 33.8906 9.77342 33.8906 9.6755V6.80623C33.8906 6.70832 33.9698 6.62915 34.0677 6.62915C34.1656 6.62915 34.2443 6.70832 34.2443 6.80623V9.6755C34.2443 9.77342 34.1656 9.85259 34.0677 9.85259Z" fill="#CC8306"/>
<path d="M34.6661 6.83593C34.6661 6.5052 34.3979 6.23749 34.0677 6.23749C33.737 6.23749 33.4688 6.50572 33.4688 6.83593C33.4688 7.16613 33.737 7.43488 34.0677 7.43488C34.3979 7.43488 34.6661 7.16613 34.6661 6.83593Z" fill="#CC8306"/>
<path d="M38.6644 7.31719C38.5665 7.31719 38.4873 7.23855 38.4873 7.14063V5.05886C38.4873 4.96094 38.5665 4.88177 38.6644 4.88177C38.7623 4.88177 38.8415 4.96094 38.8415 5.05886V7.14063C38.8415 7.23855 38.7623 7.31719 38.6644 7.31719Z" fill="#CC8306"/>
<path d="M39.2633 5.08852C39.2633 4.75727 38.9946 4.48956 38.6644 4.48956C38.3341 4.48956 38.0659 4.75831 38.0659 5.08852C38.0659 5.41873 38.3341 5.68696 38.6644 5.68696C38.9946 5.68696 39.2633 5.41873 39.2633 5.08852Z" fill="#CC8306"/>
<path d="M38.0724 13.0651C38.0271 13.0651 37.9818 13.0484 37.9474 13.0135L37.0438 12.1099C36.975 12.0406 36.975 11.9286 37.0438 11.8599C37.113 11.7906 37.225 11.7906 37.2938 11.8599L38.1974 12.7635C38.2667 12.8323 38.2667 12.9443 38.1974 13.0135C38.1625 13.0484 38.1177 13.0651 38.0724 13.0651Z" fill="#CC8306"/>
<path d="M37.6276 13.2906C37.8615 13.524 38.2407 13.524 38.4745 13.2906C38.7084 13.0573 38.7084 12.6776 38.4745 12.4438C38.2412 12.2099 37.862 12.2099 37.6276 12.4438C37.3943 12.6771 37.3943 13.0563 37.6276 13.2906Z" fill="#CC8306"/>
<path d="M23.4017 14.0672C23.3038 14.0672 23.2246 13.9886 23.2246 13.8906V6.68648C23.2246 6.58857 23.3038 6.5094 23.4017 6.5094C23.4996 6.5094 23.5788 6.58857 23.5788 6.68648V13.8906C23.5788 13.9886 23.4996 14.0672 23.4017 14.0672Z" fill="#CC8306"/>
<path d="M24.0001 6.71718C24.0001 6.38593 23.7319 6.11823 23.4017 6.11823C23.0715 6.11823 22.8032 6.38645 22.8032 6.71718C22.8032 7.04739 23.0715 7.31562 23.4017 7.31562C23.7319 7.31562 24.0001 7.04739 24.0001 6.71718Z" fill="#CC8306"/>
<path d="M21.7757 13.9771C21.6778 13.9771 21.5986 13.8979 21.5986 13.8V9.48903C21.5986 9.39112 21.6778 9.31195 21.7757 9.31195C21.8736 9.31195 21.9523 9.39112 21.9523 9.48903V13.8C21.9523 13.8979 21.8736 13.9771 21.7757 13.9771Z" fill="#CC8306"/>
<path d="M22.3742 9.51925C22.3742 9.18852 22.1059 8.92029 21.7757 8.92029C21.4455 8.92029 21.1768 9.18904 21.1768 9.51925C21.1768 9.84945 21.4455 10.1177 21.7757 10.1177C22.1059 10.1177 22.3742 9.84945 22.3742 9.51925Z" fill="#CC8306"/>
<path d="M24.7566 13.887C24.6587 13.887 24.5801 13.8078 24.5801 13.7099V5.57659L26.8691 3.28752C26.9379 3.21877 27.0499 3.21877 27.1191 3.28752C27.1879 3.3568 27.1879 3.46877 27.1191 3.53752L24.9337 5.72294V13.7099C24.9337 13.8078 24.8546 13.887 24.7566 13.887Z" fill="#CC8306"/>
<path d="M27.3964 3.85726C27.6302 3.62393 27.6302 3.24476 27.3964 3.01039C27.1631 2.77705 26.7839 2.77705 26.5495 3.01039C26.3162 3.24424 26.3162 3.62341 26.5495 3.85726C26.7828 4.09112 27.1625 4.09112 27.3964 3.85726Z" fill="#CC8306"/>
<path d="M23.3414 6.41353C23.2961 6.41353 23.2507 6.39686 23.2164 6.36197L21.431 4.57655C21.3622 4.50728 21.3622 4.3953 21.431 4.32655C21.5002 4.25728 21.6122 4.25728 21.6815 4.32655L23.4669 6.11197C23.5356 6.18072 23.5356 6.2927 23.4669 6.36197C23.432 6.39686 23.3872 6.41353 23.3414 6.41353Z" fill="#CC8306"/>
<path d="M22.0004 4.04896C21.7671 3.81563 21.3879 3.81563 21.1535 4.04896C20.9202 4.28282 20.9202 4.66198 21.1535 4.89636C21.3874 5.12969 21.7665 5.12969 22.0004 4.89636C22.2342 4.6625 22.2342 4.28334 22.0004 4.04896Z" fill="#CC8306"/>
<path d="M21.5673 9.3932C21.5219 9.3932 21.4766 9.37601 21.4423 9.34112L20.2771 8.17601C20.2084 8.10726 20.2084 7.99528 20.2771 7.92601C20.3464 7.85726 20.4584 7.85726 20.5271 7.92601L21.6923 9.09112C21.7615 9.15987 21.7615 9.27185 21.6923 9.34112C21.6574 9.37601 21.6126 9.3932 21.5673 9.3932Z" fill="#CC8306"/>
<path d="M20.8465 7.64896C20.6132 7.41511 20.2335 7.41511 19.9996 7.64896C19.7658 7.8823 19.7658 8.26146 19.9996 8.49584C20.2329 8.72969 20.6126 8.72969 20.8465 8.49584C21.0803 8.2625 21.0803 7.88282 20.8465 7.64896Z" fill="#CC8306"/>
<path d="M10.2997 26.537H2.91585C2.81794 26.537 2.73877 26.4578 2.73877 26.3599C2.73877 26.262 2.81794 26.1833 2.91585 26.1833H10.3002C10.3981 26.1833 10.4773 26.262 10.4773 26.3599C10.4773 26.4578 10.3981 26.537 10.3002 26.537H10.2997Z" fill="#CC8306"/>
<path d="M2.94463 25.7615C2.6139 25.7615 2.34619 26.0297 2.34619 26.3599C2.34619 26.6906 2.61442 26.9589 2.94463 26.9589C3.27536 26.9589 3.54359 26.6906 3.54359 26.3599C3.54359 26.0297 3.27536 25.7615 2.94463 25.7615Z" fill="#CC8306"/>
<path d="M11.1132 28.0729H4.56429C4.46637 28.0729 4.38721 27.9938 4.38721 27.8959C4.38721 27.7979 4.46637 27.7193 4.56429 27.7193H11.1132C11.2112 27.7193 11.2903 27.7979 11.2903 27.8959C11.2903 27.9938 11.2112 28.0729 11.1132 28.0729Z" fill="#CC8306"/>
<path d="M4.59408 27.2974C4.26335 27.2974 3.99512 27.5657 3.99512 27.8959C3.99512 28.2266 4.26387 28.4948 4.59408 28.4948C4.92428 28.4948 5.19251 28.2266 5.19251 27.8959C5.19251 27.5657 4.92428 27.2974 4.59408 27.2974Z" fill="#CC8306"/>
<path d="M11.2031 25.0911H4.17754C4.07962 25.0911 4.00098 25.0125 4.00098 24.9146C4.00098 24.8167 4.07962 24.7375 4.17754 24.7375H11.2036C11.3015 24.7375 11.3807 24.8167 11.3807 24.9146C11.3807 25.0125 11.3015 25.0911 11.2036 25.0911H11.2031Z" fill="#CC8306"/>
<path d="M4.20736 24.3156C3.87663 24.3156 3.6084 24.5838 3.6084 24.9146C3.6084 25.2448 3.87715 25.513 4.20736 25.513C4.53757 25.513 4.80579 25.2448 4.80579 24.9146C4.80579 24.5838 4.53757 24.3156 4.20736 24.3156Z" fill="#CC8306"/>
<path d="M11.1745 40.0297C11.1292 40.0297 11.0834 40.0125 11.0495 39.9776C10.9802 39.9083 10.9802 39.7964 11.0495 39.7276L15.5964 35.1802C15.6651 35.1115 15.7776 35.1115 15.8464 35.1802C15.9157 35.2495 15.9157 35.3615 15.8464 35.4307L11.2995 39.9776C11.2646 40.0125 11.2198 40.0297 11.1745 40.0297Z" fill="#CC8306"/>
<path d="M10.7717 39.4083C10.5383 39.6417 10.5383 40.0214 10.7717 40.2552C11.0055 40.4891 11.3847 40.4891 11.6191 40.2552C11.8529 40.0219 11.8524 39.6427 11.6191 39.4083C11.3852 39.175 11.0061 39.175 10.7717 39.4083Z" fill="#CC8306"/>
<path d="M11.1081 42.1734C11.0628 42.1734 11.0175 42.1562 10.9831 42.1213C10.9138 42.0526 10.9138 41.9406 10.9831 41.8713L16.2284 36.626C16.2972 36.5573 16.4097 36.5573 16.4784 36.626C16.5477 36.6953 16.5477 36.8073 16.4784 36.876L11.2331 42.1213C11.1982 42.1562 11.1534 42.1734 11.1081 42.1734Z" fill="#CC8306"/>
<path d="M10.7066 41.5515C10.4728 41.7854 10.4728 42.1646 10.7066 42.3989C10.94 42.6328 11.3191 42.6323 11.5535 42.3989C11.7879 42.1651 11.7868 41.7859 11.5535 41.5515C11.3197 41.3177 10.9405 41.3182 10.7066 41.5515Z" fill="#CC8306"/>
<path d="M14.7199 40.4594C14.6746 40.4594 14.6293 40.4422 14.5949 40.4073C14.5257 40.3386 14.5257 40.2266 14.5949 40.1573L16.9517 37.8005C17.021 37.7313 17.1329 37.7313 17.2022 37.8005C17.271 37.8693 17.271 37.9818 17.2022 38.0505L14.8449 40.4073C14.81 40.4422 14.7652 40.4594 14.7199 40.4594Z" fill="#CC8306"/>
<path d="M14.3175 39.8385C14.0836 40.0719 14.0836 40.451 14.3175 40.6854C14.5508 40.9187 14.93 40.9187 15.1644 40.6854C15.3987 40.4516 15.3977 40.0724 15.1644 39.8385C14.9305 39.6047 14.5513 39.6047 14.3175 39.8385Z" fill="#CC8306"/>
<path d="M27.1966 44.4578C27.0987 44.4578 27.02 44.3786 27.02 44.2807V39.0104C27.02 38.9125 27.0987 38.8333 27.1966 38.8333C27.2945 38.8333 27.3737 38.9125 27.3737 39.0104V44.2807C27.3737 44.3786 27.2945 44.4578 27.1966 44.4578Z" fill="#CC8306"/>
<path d="M26.5981 44.2511C26.5981 44.5818 26.8664 44.8495 27.1966 44.8495C27.5273 44.8495 27.7955 44.5813 27.7955 44.2511C27.7955 43.9203 27.5273 43.6521 27.1966 43.6521C26.8664 43.6521 26.5981 43.9203 26.5981 44.2511Z" fill="#CC8306"/>
<path d="M28.0999 43.0458C28.002 43.0458 27.9233 42.9666 27.9233 42.8687V39.0104C27.9233 38.9125 28.002 38.8333 28.0999 38.8333C28.1978 38.8333 28.277 38.9125 28.277 39.0104V42.8687C28.277 42.9666 28.1978 43.0458 28.0999 43.0458Z" fill="#CC8306"/>
<path d="M28.4149 42.3317C28.4483 42.3526 28.4795 42.3765 28.5082 42.4031C28.5368 42.4297 28.5628 42.4594 28.5858 42.4911C28.6087 42.5229 28.6285 42.5567 28.6446 42.5927C28.6608 42.6286 28.6738 42.6656 28.6826 42.7036C28.6915 42.7422 28.6967 42.7807 28.6983 42.8198C28.6998 42.8594 28.6972 42.8984 28.691 42.937C28.6847 42.976 28.6748 43.0135 28.6608 43.0505C28.6472 43.0875 28.63 43.1224 28.6092 43.1557C28.5884 43.1896 28.5649 43.2203 28.5378 43.2495C28.5113 43.2781 28.4821 43.3041 28.4498 43.3271C28.4181 43.35 28.3842 43.3698 28.3488 43.3859C28.3128 43.4021 28.2759 43.4151 28.2373 43.4239C28.1993 43.4328 28.1602 43.438 28.1212 43.4396C28.0821 43.4411 28.0431 43.4385 28.004 43.4323C27.9654 43.426 27.9274 43.4156 27.8904 43.4021C27.854 43.3885 27.8186 43.3713 27.7852 43.3505C27.7519 43.3297 27.7207 43.3062 27.692 43.2791C27.6634 43.2526 27.6373 43.2229 27.6144 43.1911C27.5915 43.1594 27.5717 43.1255 27.5556 43.0896C27.5389 43.0541 27.5264 43.0172 27.5175 42.9786C27.5082 42.9406 27.5029 42.9015 27.5019 42.8625C27.5003 42.8229 27.5029 42.7838 27.5092 42.7453C27.5154 42.7062 27.5253 42.6687 27.5389 42.6317C27.5529 42.5948 27.5701 42.5599 27.591 42.5265C27.6113 42.4932 27.6352 42.462 27.6618 42.4333C27.6889 42.4041 27.7181 42.3786 27.7498 42.3557C27.7821 42.3323 27.8154 42.313 27.8514 42.2963C27.8873 42.2802 27.9243 42.2677 27.9623 42.2583C28.0009 42.2495 28.0394 42.2442 28.079 42.2427C28.1181 42.2416 28.1571 42.2437 28.1962 42.2505C28.2347 42.2567 28.2727 42.2666 28.3092 42.2802C28.3462 42.2942 28.3816 42.3114 28.4149 42.3317Z" fill="#CC8306"/>
<path d="M29.1844 46.6438C29.0865 46.6438 29.0073 46.5646 29.0073 46.4667V38.9193C29.0073 38.8214 29.0865 38.7422 29.1844 38.7422C29.2823 38.7422 29.3615 38.8214 29.3615 38.9193V46.4667C29.3615 46.5646 29.2823 46.6438 29.1844 46.6438Z" fill="#CC8306"/>
<path d="M29.738 46.2078C29.7531 46.2443 29.7641 46.2818 29.7719 46.3203C29.7797 46.3588 29.7833 46.3974 29.7833 46.437C29.7833 46.476 29.7797 46.5151 29.7719 46.5536C29.7641 46.5922 29.7531 46.6297 29.738 46.6661C29.7229 46.7021 29.7047 46.737 29.6828 46.7693C29.6609 46.8021 29.6359 46.8323 29.6083 46.8604C29.5802 46.888 29.55 46.913 29.5172 46.9349C29.4849 46.9568 29.45 46.975 29.4141 46.9901C29.3776 47.0052 29.3401 47.0161 29.3016 47.024C29.263 47.0318 29.224 47.0354 29.1849 47.0354C29.1453 47.0354 29.1068 47.0318 29.0682 47.024C29.0297 47.0161 28.9922 47.0052 28.9557 46.9901C28.9193 46.975 28.8849 46.9568 28.8521 46.9349C28.8193 46.913 28.7891 46.888 28.7615 46.8604C28.7339 46.8323 28.7089 46.8021 28.687 46.7693C28.6651 46.737 28.6469 46.7021 28.6318 46.6661C28.6167 46.6297 28.6052 46.5922 28.5974 46.5536C28.5901 46.5151 28.5859 46.476 28.5859 46.437C28.5859 46.3974 28.5901 46.3588 28.5974 46.3203C28.6052 46.2818 28.6167 46.2443 28.6318 46.2078C28.6469 46.1713 28.6651 46.137 28.687 46.1042C28.7089 46.0713 28.7339 46.0411 28.7615 46.0135C28.7891 45.9859 28.8193 45.9609 28.8521 45.9391C28.8849 45.9172 28.9193 45.899 28.9557 45.8838C28.9922 45.8687 29.0297 45.8573 29.0682 45.8495C29.1068 45.8422 29.1453 45.838 29.1849 45.838C29.224 45.838 29.263 45.8422 29.3016 45.8495C29.3401 45.8573 29.3776 45.8687 29.4141 45.8838C29.45 45.899 29.4849 45.9172 29.5172 45.9391C29.55 45.9609 29.5802 45.9859 29.6083 46.0135C29.6359 46.0411 29.6609 46.0713 29.6828 46.1042C29.7042 46.137 29.7229 46.1713 29.738 46.2078Z" fill="#CC8306"/>
<path d="M40.5668 41.8042C40.5215 41.8042 40.4761 41.787 40.4418 41.7521L33.9392 35.2495C33.8699 35.1802 33.8699 35.0682 33.9392 34.9995C34.0079 34.9302 34.1199 34.9302 34.1892 34.9995L40.6918 41.5021C40.761 41.5713 40.761 41.6833 40.6918 41.7521C40.6574 41.787 40.6126 41.8042 40.5668 41.8042Z" fill="#CC8306"/>
<path d="M40.122 42.0297C40.3558 42.263 40.735 42.263 40.9694 42.0297C41.2032 41.7958 41.2027 41.4167 40.9694 41.1823C40.7355 40.9484 40.3563 40.9489 40.122 41.1823C39.8881 41.4161 39.8886 41.7953 40.122 42.0297Z" fill="#CC8306"/>
<path d="M40.1782 40.151C40.1328 40.151 40.0875 40.1338 40.0532 40.0989L34.4808 34.5271C34.412 34.4578 34.412 34.3458 34.4808 34.2765C34.55 34.2078 34.662 34.2078 34.7313 34.2765L40.3032 39.8489C40.3724 39.9177 40.3724 40.0302 40.3032 40.0989C40.2683 40.1338 40.2235 40.151 40.1782 40.151Z" fill="#CC8306"/>
<path d="M39.7338 40.3761C39.9676 40.6099 40.3468 40.6099 40.5807 40.3761C40.815 40.1427 40.8145 39.7636 40.5807 39.5292C40.3473 39.2953 39.9682 39.2959 39.7338 39.5292C39.4999 39.7631 39.5005 40.1422 39.7338 40.3761Z" fill="#CC8306"/>
<path d="M39.0978 37.0833C39.0524 37.0833 39.0071 37.0661 38.9728 37.0313L35.0228 33.0812C34.954 33.012 34.954 32.9 35.0228 32.8312C35.092 32.762 35.204 32.762 35.2728 32.8312L39.2233 36.7813C39.292 36.85 39.292 36.9625 39.2233 37.0313C39.1884 37.0661 39.1436 37.0833 39.0978 37.0833Z" fill="#CC8306"/>
<path d="M38.6536 37.3083C38.8869 37.5422 39.2661 37.5422 39.5005 37.3083C39.7343 37.075 39.7338 36.6958 39.5005 36.4615C39.2666 36.2276 38.8875 36.2281 38.6536 36.4615C38.4192 36.6953 38.4198 37.0745 38.6536 37.3083Z" fill="#CC8306"/>
<path d="M13.7338 20.2125C13.688 20.2125 13.6427 20.1953 13.6083 20.1604L7.68486 14.2364C7.61611 14.1677 7.61611 14.0557 7.68486 13.9864C7.75413 13.9177 7.86611 13.9177 7.93486 13.9864L13.8588 19.9104C13.9276 19.9791 13.9276 20.0911 13.8588 20.1604C13.8239 20.1953 13.7791 20.2125 13.7338 20.2125Z" fill="#CC8306"/>
<path d="M8.25469 13.7094C8.02135 13.476 7.64167 13.476 7.40781 13.7094C7.17396 13.9427 7.17396 14.3224 7.40781 14.5562C7.64115 14.7901 8.02031 14.7901 8.25469 14.5562C8.48802 14.3229 8.48802 13.9437 8.25469 13.7094Z" fill="#CC8306"/>
<path d="M14.4561 19.3989C14.4107 19.3989 14.3649 19.3818 14.3311 19.3469L8.58574 13.6021C8.51699 13.5328 8.51699 13.4208 8.58574 13.3521C8.65501 13.2828 8.76699 13.2828 8.83626 13.3521L14.5811 19.0969C14.6498 19.1661 14.6498 19.2781 14.5811 19.3469C14.5462 19.3818 14.5014 19.3989 14.4561 19.3989Z" fill="#CC8306"/>
<path d="M9.15566 13.0745C8.92233 12.8411 8.54316 12.8411 8.30879 13.0745C8.07546 13.3083 8.07546 13.6875 8.30879 13.9219C8.54264 14.1552 8.92181 14.1552 9.15566 13.9219C9.38952 13.688 9.38952 13.3089 9.15566 13.0745Z" fill="#CC8306"/>
<path d="M15.179 18.6755C15.1337 18.6755 15.0884 18.6589 15.054 18.624L11.2645 14.8344C11.1957 14.7651 11.1957 14.6531 11.2645 14.5839C11.3337 14.5151 11.4457 14.5151 11.5145 14.5839L15.304 18.374C15.3733 18.4427 15.3733 18.5547 15.304 18.624C15.2697 18.6589 15.2243 18.6755 15.179 18.6755Z" fill="#CC8306"/>
<path d="M11.8345 14.3073C11.6011 14.0739 11.2215 14.0739 10.9876 14.3073C10.7532 14.5411 10.7537 14.9203 10.9876 15.1547C11.2209 15.388 11.6001 15.388 11.8345 15.1547C12.0688 14.9208 12.0678 14.5416 11.8345 14.3073Z" fill="#CC8306"/>
<path d="M11.2562 14.5802C11.2296 14.5802 11.2025 14.574 11.177 14.5609C11.09 14.5177 11.0546 14.4115 11.0984 14.324L11.9885 12.5438C12.0317 12.4568 12.1379 12.4214 12.2254 12.4651C12.3124 12.5083 12.3478 12.6146 12.3046 12.7021L11.4145 14.4823C11.3832 14.5438 11.3213 14.5802 11.2556 14.5802H11.2562Z" fill="#CC8306"/>
<path d="M12.668 12.9172C12.8165 12.6219 12.6962 12.262 12.4003 12.1141C12.105 11.9656 11.7451 12.086 11.5972 12.3818C11.4488 12.6771 11.5696 13.037 11.8649 13.1849C12.1602 13.3334 12.5201 13.2125 12.668 12.9172Z" fill="#CC8306"/>
<path d="M8.60768 13.2583C8.58216 13.2583 8.5556 13.2521 8.5306 13.2406C8.44258 13.1974 8.40612 13.0917 8.44935 13.0042L9.40455 11.0453C9.44778 10.9573 9.55351 10.9208 9.64101 10.9635C9.72903 11.0068 9.76549 11.1125 9.72278 11.2L8.76705 13.1589C8.73633 13.2224 8.6733 13.2589 8.60768 13.2589V13.2583Z" fill="#CC8306"/>
<path d="M10.0884 11.412C10.2332 11.1146 10.1103 10.7562 9.8129 10.6114C9.51551 10.4666 9.15717 10.5896 9.01238 10.887C8.86759 11.1844 8.99051 11.5427 9.2879 11.6875C9.5853 11.8318 9.94363 11.7094 10.0884 11.412Z" fill="#CC8306"/>
<path d="M7.28681 14.276C7.28004 14.276 7.27327 14.276 7.2665 14.275L4.63889 13.9776C4.5415 13.9666 4.47171 13.8791 4.48317 13.7817C4.4941 13.6843 4.5816 13.6151 4.679 13.626L7.3066 13.9234C7.404 13.9349 7.47379 14.0218 7.46233 14.1192C7.45244 14.2093 7.37587 14.276 7.28681 14.276Z" fill="#CC8306"/>
<path d="M4.75623 13.2099C4.42758 13.1724 4.13123 13.4083 4.09425 13.7375C4.05675 14.0662 4.29269 14.363 4.62185 14.4C4.9505 14.4375 5.24737 14.2016 5.28435 13.8724C5.32133 13.5432 5.0854 13.2469 4.75675 13.2099H4.75623Z" fill="#CC8306"/>
<path d="M3.90829 25.1213C3.86141 25.1213 3.81454 25.1031 3.77964 25.0661C3.71246 24.9953 3.71506 24.8833 3.78589 24.8161L5.72235 22.9786C5.79318 22.9114 5.90516 22.914 5.97235 22.9849C6.04006 23.0557 6.03693 23.1677 5.9661 23.2354L4.02964 25.0724C3.99527 25.1047 3.95204 25.1208 3.90829 25.1208V25.1213Z" fill="#CC8306"/>
<path d="M6.2357 23.562C6.47528 23.3344 6.4857 22.9557 6.25809 22.7156C6.02997 22.4755 5.65132 22.4656 5.41122 22.6932C5.17164 22.9208 5.16122 23.2995 5.38882 23.5396C5.61695 23.7797 5.99559 23.7896 6.2357 23.562Z" fill="#CC8306"/>
<path d="M0.655578 27.8318C0.596724 27.8318 0.538911 27.8021 0.505578 27.7485C0.453495 27.6656 0.479015 27.5563 0.561307 27.5052L2.48839 26.3005C2.57068 26.2485 2.68058 26.274 2.73214 26.3568C2.78318 26.4391 2.7587 26.549 2.67589 26.6L0.748807 27.8047C0.720161 27.8229 0.687349 27.8318 0.655057 27.8318H0.655578Z" fill="#CC8306"/>
<path d="M0.364007 27.1312C0.0837985 27.3062 -0.00161814 27.6755 0.173382 27.9562C0.348382 28.237 0.717653 28.3218 0.998382 28.1468C1.27859 27.9713 1.36401 27.6021 1.18901 27.3213C1.01401 27.0406 0.644736 26.9557 0.364007 27.1312Z" fill="#CC8306"/>
<path d="M6.01759 29.563C5.97488 29.563 5.93165 29.5474 5.89832 29.5161L4.20926 27.9729C4.13738 27.9068 4.13218 27.7948 4.19832 27.7224C4.26447 27.6505 4.37645 27.6453 4.44832 27.7114L6.13686 29.2552C6.20926 29.3208 6.21447 29.4333 6.14832 29.5052C6.11343 29.5432 6.06551 29.563 6.01811 29.563H6.01759Z" fill="#CC8306"/>
<path d="M5.59111 29.8078C5.83538 30.0307 6.21402 30.014 6.43694 29.7698C6.65986 29.5255 6.64267 29.1469 6.39892 28.9239C6.15465 28.701 5.776 28.7182 5.55309 28.962C5.33017 29.2052 5.34736 29.5849 5.59111 29.8078Z" fill="#CC8306"/>
<path d="M11.0704 40.1255C10.9897 40.1255 10.9168 40.0698 10.8986 39.9875L10.4814 38.1333C10.46 38.0375 10.5199 37.9432 10.6152 37.9219C10.7111 37.9005 10.8053 37.9604 10.8272 38.0557L11.2439 39.9104C11.2652 40.0057 11.2058 40.1 11.11 40.1213C11.097 40.1245 11.084 40.1255 11.0715 40.1255H11.0704Z" fill="#CC8306"/>
<path d="M11.2439 37.9922C11.1715 37.6693 10.8512 37.4667 10.5288 37.5391C10.2059 37.6115 10.0033 37.9318 10.0757 38.2547C10.1481 38.5771 10.4684 38.7802 10.7913 38.7078C11.1137 38.6349 11.3168 38.3146 11.2439 37.9922Z" fill="#CC8306"/>
<path d="M12.3446 43.0781C12.3211 43.0781 12.2977 43.0735 12.2748 43.0641L10.8998 42.475C10.8102 42.4365 10.7685 42.3323 10.8066 42.2427C10.8451 42.1526 10.9487 42.111 11.0388 42.1495L12.4138 42.7386C12.5034 42.7771 12.5456 42.8813 12.5071 42.9709C12.4784 43.038 12.4133 43.0781 12.3446 43.0781Z" fill="#CC8306"/>
<path d="M12.0819 43.4396C12.3855 43.5703 12.7376 43.4292 12.8678 43.1255C12.998 42.8219 12.8574 42.4698 12.5532 42.3391C12.2496 42.2089 11.8975 42.35 11.7673 42.6537C11.6371 42.9573 11.7777 43.3094 12.0819 43.4396Z" fill="#CC8306"/>
<path d="M16.3231 42.1849C16.2778 42.1849 16.2325 42.1677 16.1981 42.1328L14.4314 40.3662C14.3627 40.2974 14.3627 40.1849 14.4314 40.1162C14.5007 40.0469 14.6127 40.0469 14.6814 40.1162L16.4481 41.8828C16.5174 41.9516 16.5174 42.0636 16.4481 42.1328C16.4132 42.1677 16.3684 42.1849 16.3231 42.1849Z" fill="#CC8306"/>
<path d="M15.8783 42.4099C16.1122 42.6438 16.4913 42.6438 16.7252 42.4099C16.9596 42.1766 16.959 41.7974 16.7252 41.563C16.4919 41.3287 16.1127 41.3292 15.8783 41.563C15.6445 41.7964 15.645 42.1761 15.8783 42.4099Z" fill="#CC8306"/>
<path d="M25.0854 44.5625C24.9906 44.5625 24.9119 44.4875 24.9083 44.3916C24.9052 44.2937 24.9817 44.212 25.0791 44.2088L27.0854 44.1385C27.1859 44.1354 27.2656 44.212 27.2682 44.3094C27.2718 44.4073 27.1953 44.489 27.0979 44.4922L25.0916 44.5625C25.0916 44.5625 25.0875 44.5625 25.0849 44.5625H25.0854Z" fill="#CC8306"/>
<path d="M25.0946 43.7854C24.7644 43.7974 24.5055 44.0745 24.5175 44.4047C24.5289 44.7349 24.8066 44.9943 25.1368 44.9823C25.467 44.9703 25.7258 44.6932 25.7138 44.363C25.7024 44.0328 25.4253 43.7735 25.0946 43.7854Z" fill="#CC8306"/>
<path d="M29.2297 47.0104C29.1729 47.0104 29.1177 46.9834 29.0834 46.9334C29.0287 46.8526 29.049 46.7422 29.1302 46.6875L30.9183 45.4714C30.999 45.4162 31.1094 45.437 31.1641 45.5177C31.2193 45.5985 31.1985 45.7089 31.1177 45.7636L29.3292 46.9802C29.2985 47.0005 29.2646 47.0104 29.2302 47.0104H29.2297Z" fill="#CC8306"/>
<path d="M31.33 46.1297C31.6034 45.9438 31.6743 45.5709 31.4883 45.2979C31.3029 45.024 30.93 44.9531 30.6571 45.1391C30.3831 45.325 30.3123 45.6979 30.4982 45.9709C30.6842 46.2443 31.0566 46.3151 31.33 46.1297Z" fill="#CC8306"/>
<path d="M39.5307 36.9703C39.4739 36.9703 39.4187 36.9443 39.3848 36.8937C39.3291 36.813 39.3499 36.7031 39.4301 36.6479L41.1301 35.4797C41.2103 35.4239 41.3208 35.4448 41.376 35.525C41.4317 35.6057 41.4109 35.7156 41.3307 35.7708L39.6307 36.939C39.5999 36.9604 39.565 36.9703 39.5307 36.9703Z" fill="#CC8306"/>
<path d="M41.5449 36.1354C41.8173 35.9479 41.8866 35.575 41.6991 35.3026C41.511 35.0302 41.1386 34.9609 40.8657 35.1484C40.5933 35.3359 40.5246 35.7088 40.7121 35.9812C40.8996 36.2542 41.2725 36.3229 41.5449 36.1354Z" fill="#CC8306"/>
<path d="M40.6107 40.0151C40.5701 40.0151 40.5289 40.001 40.4956 39.9729C40.4216 39.9088 40.4133 39.7974 40.4763 39.7234L41.7326 38.2578C41.7966 38.1833 41.9081 38.175 41.9821 38.238C42.0565 38.3015 42.0649 38.4135 42.0019 38.4875L40.7451 39.9531C40.7107 39.9943 40.6607 40.0151 40.6107 40.0151Z" fill="#CC8306"/>
<path d="M42.302 38.7849C42.5171 38.5338 42.4884 38.1557 42.2369 37.9406C41.9858 37.7255 41.6077 37.7547 41.3931 38.0057C41.178 38.2568 41.2072 38.6349 41.4577 38.85C41.7093 39.0651 42.0874 39.0359 42.302 38.7849Z" fill="#CC8306"/>
<path d="M39.3465 43.3568C39.2986 43.3568 39.2517 43.338 39.2168 43.3C39.1502 43.2287 39.1543 43.1167 39.2262 43.05L40.7069 41.675C40.7783 41.6083 40.8903 41.6125 40.9569 41.6844C41.0236 41.7557 41.0194 41.8677 40.9476 41.9344L39.4668 43.3094C39.433 43.3412 39.3897 43.3568 39.3465 43.3568Z" fill="#CC8306"/>
<path d="M38.9612 42.7209C38.7184 42.9453 38.7044 43.325 38.9299 43.5672C39.1549 43.8099 39.5335 43.824 39.7763 43.5985C40.0184 43.374 40.0325 42.9943 39.8075 42.7521C39.5825 42.5099 39.2033 42.4953 38.9612 42.7209Z" fill="#CC8306"/>
<path d="M25.4457 35.0255C25.4775 35.0255 25.5035 34.9974 25.5035 34.9625V34.9021C25.5035 34.8672 25.4775 34.8391 25.4457 34.8391H24.5514C24.5197 34.8391 24.4941 34.8672 24.4941 34.9021V34.9625C24.4941 34.9974 24.5197 35.0255 24.5514 35.0255H25.4457Z" fill="#CC8306"/>
<path d="M25.4457 35.2984C25.4775 35.2984 25.5035 35.2698 25.5035 35.2349V35.175C25.5035 35.1401 25.4775 35.1115 25.4457 35.1115H24.5514C24.5197 35.1115 24.4941 35.1401 24.4941 35.175V35.2349C24.4941 35.2698 24.5197 35.2984 24.5514 35.2984H25.4457Z" fill="#CC8306"/>
<path d="M25.4457 35.5709C25.4775 35.5709 25.5035 35.5422 25.5035 35.5073V35.4474C25.5035 35.4125 25.4775 35.3844 25.4457 35.3844H24.5514C24.5197 35.3844 24.4941 35.4125 24.4941 35.4474V35.5073C24.4941 35.5422 24.5197 35.5709 24.5514 35.5709H25.4457Z" fill="#CC8306"/>
<path d="M25.2937 35.6661C25.2395 35.774 25.1281 35.8495 24.9994 35.8495C24.8718 35.8495 24.7583 35.7729 24.7041 35.6661H25.2937Z" fill="#CC8306"/>
<mask id="mask0_70_569" style="mask-type:luminance" maskUnits="userSpaceOnUse" x="23" y="31" width="4" height="4">
<path d="M23.7515 31.3922H26.2515V34.8H23.7515V31.3922Z" fill="white"/>
</mask>
<g mask="url(#mask0_70_569)">
<path d="M24.9989 31.3932C24.3098 31.3932 23.7515 31.9516 23.7515 32.6406C23.7515 32.8672 23.8155 33.0781 23.9181 33.263C24.2244 33.8146 24.3051 34.1245 24.3551 34.4245C24.3973 34.6755 24.4551 34.7344 24.6452 34.7344H25.3525C25.5421 34.7344 25.6004 34.6755 25.6421 34.4245C25.6921 34.1245 25.7733 33.8146 26.0796 33.263C26.1822 33.0781 26.2457 32.8672 26.2457 32.6406C26.2457 31.9516 25.6874 31.3932 24.9989 31.3932Z" fill="#CC8306"/>
</g>
<mask id="mask1_70_569" style="mask-type:luminance" maskUnits="userSpaceOnUse" x="24" y="33" width="2" height="2">
<path d="M24.3999 33.7333H25.7332V34.7823H24.3999V33.7333Z" fill="white"/>
</mask>
<g mask="url(#mask1_70_569)">
<path d="M25.092 34.7886C24.9852 34.7886 24.7826 34.775 24.6644 34.7193C24.5925 34.6855 24.5561 34.5006 24.53 34.0365C24.528 34.0032 24.5389 33.9735 24.5618 33.948C24.6207 33.8834 24.7545 33.8521 25.0087 33.8433C25.2623 33.8344 25.5712 33.8558 25.6019 34.0073C25.6186 34.0896 25.5858 34.349 25.5477 34.6297L25.542 34.6761C25.5363 34.7188 25.5003 34.7625 25.142 34.7875C25.1295 34.7881 25.1128 34.7886 25.092 34.7886ZM25.0993 33.9136C25.0712 33.9136 25.042 33.9141 25.0113 33.9151C24.929 33.9177 24.6785 33.9266 24.6149 33.9964C24.605 34.0068 24.6009 34.0183 24.6019 34.0323C24.6306 34.5396 24.6727 34.6396 24.6951 34.6542C24.8165 34.711 25.0571 34.7209 25.1373 34.7151C25.4019 34.6969 25.4597 34.6688 25.4712 34.6605L25.4769 34.6203C25.5014 34.4381 25.5472 34.0985 25.5316 34.0214C25.5201 33.9657 25.3816 33.9136 25.0993 33.9136Z" fill="#CC8306"/>
</g>
<path d="M24.5741 34.1989C24.5611 34.1989 24.5481 34.1917 24.5419 34.1792C24.533 34.1614 24.5403 34.1396 24.558 34.1307C24.9247 33.9469 25.5299 34.0646 25.5554 34.0698C25.5747 34.0734 25.5872 34.0922 25.5835 34.112C25.5794 34.1312 25.5606 34.1437 25.5413 34.1401C25.5351 34.139 24.9346 34.0219 24.5903 34.1948C24.5851 34.1974 24.5794 34.1989 24.5741 34.1989Z" fill="#CC8306"/>
<path d="M24.7396 34.351C24.7245 34.351 24.711 34.3417 24.7057 34.3271C24.699 34.3083 24.7089 34.2875 24.7276 34.2812C25.0615 34.1661 25.5339 34.2463 25.5542 34.25C25.574 34.2536 25.587 34.2719 25.5834 34.2917C25.5802 34.3109 25.5615 34.3245 25.5422 34.3208C25.537 34.3198 25.0677 34.2401 24.7516 34.3495C24.7474 34.3505 24.7432 34.351 24.7396 34.351Z" fill="#CC8306"/>
<path d="M25.5329 34.5068C25.5297 34.5068 25.5261 34.5062 25.5225 34.5052C25.5183 34.5042 25.2818 34.4338 24.9725 34.488C24.9527 34.4917 24.9339 34.4786 24.9308 34.4588C24.9271 34.4396 24.9402 34.4208 24.96 34.4172C25.2881 34.3599 25.5334 34.4333 25.5438 34.4364C25.5626 34.4427 25.5735 34.4625 25.5672 34.4818C25.5626 34.4969 25.5485 34.5068 25.5329 34.5068Z" fill="#CC8306"/>
<path d="M25.4174 33.9188C25.3612 33.7302 25.444 33.5391 25.5237 33.4125C25.5638 33.3485 25.6096 33.2886 25.6534 33.2302C25.7086 33.1573 25.7659 33.0818 25.8101 33.0016C25.9122 32.8167 25.9497 32.6005 25.9169 32.3922C25.8883 32.2156 25.8086 32.049 25.6914 31.9235C25.5013 31.7203 25.2013 31.6115 24.8877 31.6318C24.7398 31.6417 24.5268 31.6839 24.3528 31.8292C24.1841 31.9703 24.0799 32.1948 24.0737 32.4297C24.0679 32.6505 24.1445 32.8776 24.2903 33.0693C24.3325 33.1255 24.3815 33.1792 24.4284 33.2308C24.4877 33.2953 24.5482 33.362 24.5997 33.436C24.7127 33.6 24.7513 33.7755 24.7049 33.9183L24.6367 33.8959C24.6763 33.775 24.6409 33.6224 24.5403 33.4771C24.4919 33.4073 24.4325 33.3422 24.3752 33.2792C24.3273 33.2261 24.2773 33.1714 24.233 33.113C24.0773 32.9084 23.9955 32.6651 24.0018 32.4276C24.0086 32.1724 24.1226 31.9281 24.307 31.774C24.4955 31.6162 24.7247 31.5709 24.883 31.5599C25.2179 31.5386 25.5398 31.6558 25.744 31.8745C25.8711 32.0104 25.9575 32.1901 25.9883 32.3813C26.0237 32.6052 25.983 32.838 25.8732 33.0365C25.8268 33.1214 25.7679 33.1985 25.7112 33.2735C25.6679 33.3308 25.6232 33.3896 25.5851 33.4505C25.5133 33.5651 25.4377 33.7354 25.4862 33.8979L25.4174 33.9188Z" fill="#CC8306"/>
<path d="M25.1472 33.9052C25.104 33.7438 25.1186 33.4521 25.1972 33.2625C25.1571 33.2557 25.1202 33.2438 25.0931 33.2281C25.0889 33.2261 25.0847 33.2235 25.0806 33.2208C25.028 33.2485 24.967 33.2636 24.904 33.2636C24.9035 33.2636 24.903 33.2636 24.9019 33.2636C24.9644 33.4547 24.9764 33.6714 24.9363 33.8995L24.8655 33.887C24.9056 33.6583 24.8905 33.4427 24.8233 33.2557C24.753 33.2412 24.6889 33.2083 24.641 33.1599C24.6249 33.1432 24.6035 33.1172 24.6051 33.0823C24.6061 33.0573 24.6196 33.0349 24.642 33.0208C24.6681 33.0042 24.7035 33.0016 24.7316 33.013C24.7712 33.0297 24.8186 33.0729 24.8374 33.1094C24.8509 33.136 24.8634 33.163 24.8749 33.1906C24.8842 33.1917 24.8936 33.1917 24.9035 33.1917C24.9431 33.1917 24.9816 33.1844 25.017 33.1708C24.9707 33.124 24.9436 33.0682 24.942 33.0115C24.941 32.9568 24.9707 32.8995 25.0181 32.8662C25.0582 32.838 25.1051 32.8307 25.1462 32.8469C25.2051 32.8693 25.2436 32.9339 25.24 33.0031C25.2363 33.0714 25.1972 33.125 25.165 33.1583C25.1592 33.1641 25.1535 33.1698 25.1472 33.175C25.1702 33.1844 25.1999 33.1912 25.2306 33.1948C25.2509 33.1604 25.2743 33.1328 25.3004 33.1125C25.3504 33.075 25.4061 33.074 25.4394 33.0901C25.4634 33.1011 25.478 33.1224 25.479 33.1458C25.4806 33.1833 25.4613 33.2162 25.4259 33.2375C25.3874 33.2604 25.3311 33.2703 25.2728 33.2698C25.1983 33.4323 25.1722 33.7229 25.2165 33.8865L25.1472 33.9052ZM25.3936 33.1521C25.3806 33.1521 25.3629 33.1557 25.3441 33.1698C25.3353 33.1771 25.3264 33.1854 25.3176 33.1958C25.3462 33.1927 25.3712 33.1865 25.3889 33.1755C25.403 33.1672 25.4066 33.1594 25.4071 33.1537C25.4045 33.1526 25.3993 33.1521 25.3936 33.1521ZM24.6952 33.0776C24.69 33.0776 24.6842 33.0792 24.6801 33.0818C24.678 33.0833 24.6764 33.0849 24.6764 33.0854C24.6764 33.087 24.6775 33.0938 24.6926 33.1089C24.7186 33.136 24.7514 33.1568 24.7879 33.1708C24.7832 33.161 24.7785 33.1516 24.7738 33.1422C24.7624 33.1208 24.728 33.0896 24.704 33.0792C24.7014 33.0781 24.6983 33.0776 24.6952 33.0776ZM25.1014 32.9104C25.0837 32.9104 25.0686 32.9188 25.0597 32.925C25.0321 32.9448 25.0139 32.9787 25.0144 33.0099C25.0155 33.0537 25.041 33.0979 25.0837 33.1344C25.0946 33.1266 25.1051 33.1177 25.1144 33.1078C25.1478 33.074 25.167 33.0349 25.1691 32.9995C25.1707 32.962 25.1504 32.925 25.1212 32.9136C25.1139 32.9115 25.1077 32.9104 25.1014 32.9104Z" fill="#CC8306"/>
<path d="M26.4235 32.8781C26.4458 32.8588 26.4755 32.8656 26.5011 32.8734C26.6214 32.9104 26.7422 32.9474 26.8625 32.9844C26.8844 32.9911 26.9089 33 26.9172 33.0229C26.9208 33.0328 26.9214 33.0448 26.9203 33.0562C26.9172 33.1193 26.8729 33.2286 26.7521 33.1937C26.7 33.1792 26.2688 33.0125 26.4235 32.8781Z" fill="#CC8306"/>
<path d="M25.5553 31.2042C25.5397 31.1828 25.5475 31.1536 25.5564 31.1286C25.598 31.0094 25.6397 30.8906 25.6814 30.7719C25.6892 30.7505 25.6986 30.7266 25.7199 30.7177C25.7288 30.7135 25.7392 30.713 25.7496 30.7135C25.8053 30.7151 25.9486 30.8042 25.8892 30.8979C25.86 30.9432 25.6631 31.3526 25.5553 31.2042Z" fill="#CC8306"/>
<mask id="mask2_70_569" style="mask-type:luminance" maskUnits="userSpaceOnUse" x="24" y="30" width="1" height="2">
<path d="M24.2666 30.5823H24.6666V31.2H24.2666V30.5823Z" fill="white"/>
</mask>
<g mask="url(#mask2_70_569)">
<path d="M24.635 30.9744C24.6371 31.0031 24.6392 31.0328 24.6309 31.0604C24.6225 31.088 24.6012 31.1135 24.5725 31.1182C24.547 31.1229 24.5204 31.1099 24.5027 31.0906C24.485 31.0713 24.4741 31.0468 24.4631 31.0229C24.4309 30.9494 24.3986 30.876 24.3663 30.8026C24.3423 30.7489 24.3199 30.6817 24.3553 30.6349C24.373 30.6119 24.4012 30.5994 24.4298 30.5927C24.4673 30.5833 24.509 30.5823 24.5439 30.5989C24.6475 30.6484 24.6272 30.8791 24.635 30.9744Z" fill="#CC8306"/>
</g>
<path d="M26.4985 31.8609C26.4709 31.8646 26.4422 31.8682 26.4136 31.863C26.3855 31.8573 26.3568 31.8411 26.3474 31.8182C26.3391 31.7969 26.348 31.774 26.3636 31.7583C26.3797 31.7422 26.4016 31.7318 26.4235 31.7213C26.4896 31.6901 26.5563 31.6588 26.623 31.6271C26.6719 31.6042 26.7334 31.5812 26.7849 31.6078C26.8105 31.6213 26.8271 31.6443 26.8386 31.6672C26.8537 31.6979 26.8615 31.7323 26.8506 31.7625C26.8193 31.851 26.5901 31.849 26.4985 31.8609Z" fill="#CC8306"/>
<path d="M23.846 31.5365C23.8236 31.5859 23.7455 31.5589 23.6949 31.5474C23.5861 31.5229 23.4788 31.4927 23.3725 31.4557C23.3465 31.4469 23.3163 31.4318 23.3116 31.4C23.309 31.3818 23.3158 31.3641 23.3236 31.3479C23.3777 31.226 23.4179 31.2005 23.5293 31.2542C23.6277 31.3016 23.8908 31.4365 23.846 31.5365Z" fill="#CC8306"/>
<mask id="mask3_70_569" style="mask-type:luminance" maskUnits="userSpaceOnUse" x="22" y="32" width="2" height="1">
<path d="M22.8716 32.1334H23.6002V32.5334H22.8716V32.1334Z" fill="white"/>
</mask>
<g mask="url(#mask3_70_569)">
<path d="M23.4994 32.3099C23.4994 32.3604 23.2822 32.3979 23.154 32.4047C23.1077 32.4068 22.9816 32.4104 22.9452 32.3818C22.9087 32.3531 22.8717 32.2068 22.9217 32.1787C23.0139 32.1266 23.4999 32.1266 23.4994 32.3099Z" fill="#CC8306"/>
</g>
<path d="M23.5746 33.3818C23.5413 33.413 23.5075 33.4443 23.4668 33.4651C23.4262 33.4865 23.3569 33.5083 23.3153 33.4604C23.2819 33.4219 23.2778 33.3583 23.3111 33.3266C23.42 33.2214 23.547 33.1568 23.6528 33.1396C23.872 33.1047 23.6272 33.3328 23.5746 33.3818Z" fill="#CC8306"/>
<path d="M17.5254 22.9817H18.0129C18.2212 22.9817 18.3926 23.0223 18.5275 23.1025C18.6618 23.1833 18.7598 23.2874 18.8212 23.415C18.8822 23.5431 18.9129 23.6796 18.9129 23.8254C18.9129 23.9827 18.8759 24.1208 18.8025 24.24C18.7285 24.3598 18.6296 24.452 18.5046 24.5171C18.3796 24.5812 18.2421 24.6129 18.0921 24.6129H17.5254V22.9817ZM18.0379 24.3025C18.2046 24.3025 18.3363 24.2603 18.4337 24.1754C18.5322 24.0895 18.5816 23.9661 18.5816 23.8046C18.5816 23.6744 18.5546 23.5708 18.5004 23.4942C18.4462 23.4166 18.3827 23.3629 18.3108 23.3338C18.24 23.3046 18.1723 23.29 18.1087 23.29H17.8462V24.3025H18.0379Z" fill="white" fill-opacity="0.4"/>
<path d="M20.2881 22.9817V24.6129H19.9673V22.9817H20.2881ZM20.2131 22.8754H20.0235L20.1965 22.5754H20.5402L20.2131 22.8754Z" fill="white" fill-opacity="0.4"/>
<path d="M22.9142 22.9817V24.6796H22.9038L21.7621 23.6484L21.7684 24.6129H21.4434V22.9171H21.4559L22.5954 23.9629L22.5892 22.9817H22.9142Z" fill="white" fill-opacity="0.4"/>
<path d="M24.8729 24.2942H24.3333L24.2 24.6129H23.8833L24.6187 22.9171H24.6375L25.3729 24.6129H25L24.8729 24.2942ZM24.7666 24.0234L24.6104 23.6275L24.4458 24.0234H24.7666Z" fill="white" fill-opacity="0.4"/>
<path d="M28.024 22.915V24.613H27.7011V23.8359L27.1699 24.59H27.1657L26.6532 23.8838V24.613H26.3428V22.915H26.3449L27.1719 24.088L28.0178 22.915H28.024Z" fill="white" fill-opacity="0.4"/>
<path d="M29.0767 23.8005C29.0767 23.652 29.1142 23.514 29.1892 23.3859C29.2642 23.2567 29.3652 23.1541 29.4933 23.0775C29.6209 23.0015 29.759 22.963 29.9079 22.963C30.0579 22.963 30.1965 23.0015 30.3246 23.0775C30.4522 23.1541 30.5537 23.2567 30.6287 23.3859C30.7048 23.514 30.7433 23.652 30.7433 23.8005C30.7433 23.9505 30.7048 24.0895 30.6287 24.2171C30.5537 24.3437 30.4522 24.4442 30.3246 24.5192C30.1965 24.5942 30.0579 24.6317 29.9079 24.6317C29.7579 24.6317 29.6188 24.5942 29.4912 24.5192C29.3647 24.4442 29.2642 24.3437 29.1892 24.2171C29.1142 24.0895 29.0767 23.9505 29.0767 23.8005ZM29.41 23.8005C29.41 23.8952 29.4319 23.9827 29.4767 24.063C29.5225 24.1421 29.5834 24.2057 29.66 24.2525C29.7376 24.2984 29.8246 24.3213 29.9204 24.3213C30.0105 24.3213 30.0933 24.2984 30.1683 24.2525C30.2444 24.2057 30.3043 24.1421 30.3475 24.063C30.3902 23.9838 30.4121 23.8963 30.4121 23.8005C30.4121 23.702 30.3897 23.613 30.3454 23.5338C30.3006 23.4536 30.2402 23.39 30.1642 23.3442C30.0876 23.2973 30.0027 23.2734 29.91 23.2734C29.8168 23.2734 29.7319 23.2973 29.6558 23.3442C29.5808 23.39 29.5209 23.4536 29.4767 23.5338C29.4319 23.613 29.41 23.702 29.41 23.8005Z" fill="white" fill-opacity="0.4"/>
<path d="M32.6691 23.3755C32.5274 23.2979 32.4045 23.2588 32.3004 23.2588C32.228 23.2588 32.1722 23.2729 32.1337 23.3005C32.0946 23.3286 32.0754 23.3708 32.0754 23.4276C32.0754 23.4791 32.1035 23.5244 32.1608 23.563C32.2175 23.602 32.2931 23.6395 32.3879 23.6755C32.4639 23.7036 32.5295 23.7354 32.5837 23.7713C32.6389 23.8078 32.6847 23.8578 32.7212 23.9213C32.7571 23.9854 32.7754 24.0661 32.7754 24.163C32.7754 24.2479 32.7535 24.3265 32.7108 24.3984C32.6675 24.4692 32.6035 24.5265 32.5191 24.5692C32.4342 24.6109 32.3337 24.6317 32.217 24.6317C32.1196 24.6317 32.0233 24.6171 31.9274 24.588C31.8316 24.5588 31.742 24.5145 31.6587 24.4546L31.8004 24.2046C31.8571 24.2463 31.9217 24.2807 31.9941 24.3067C32.066 24.3333 32.1306 24.3463 32.1879 24.3463C32.2556 24.3463 32.3149 24.3328 32.3649 24.3046C32.416 24.2755 32.442 24.2286 32.442 24.163C32.442 24.0786 32.3629 24.0057 32.2045 23.9442C32.1113 23.9067 32.0337 23.8713 31.9712 23.838C31.9087 23.8036 31.8545 23.7546 31.8087 23.6921C31.7639 23.6286 31.742 23.5479 31.742 23.4505C31.742 23.3104 31.7879 23.1979 31.8795 23.113C31.9722 23.027 32.0962 22.9807 32.2504 22.9734C32.3712 22.9734 32.4717 22.9875 32.5524 23.0151C32.6342 23.0416 32.7139 23.0796 32.792 23.1296L32.6691 23.3755Z" fill="white" fill-opacity="0.4"/>
<path d="M17.4272 22.8838H17.9147C18.1231 22.8838 18.2944 22.9244 18.4293 23.0046C18.5637 23.0854 18.6616 23.1895 18.7231 23.3171C18.784 23.4452 18.8147 23.5817 18.8147 23.7275C18.8147 23.8848 18.7778 24.0229 18.7043 24.1421C18.6304 24.2619 18.5314 24.3541 18.4064 24.4192C18.2814 24.4833 18.1439 24.515 17.9939 24.515H17.4272V22.8838ZM17.9397 24.2046C18.1064 24.2046 18.2382 24.1624 18.3356 24.0775C18.434 23.9916 18.4835 23.8682 18.4835 23.7067C18.4835 23.5765 18.4564 23.4729 18.4022 23.3963C18.3481 23.3187 18.2845 23.265 18.2127 23.2359C18.1418 23.2067 18.0741 23.1921 18.0106 23.1921H17.7481V24.2046H17.9397Z" fill="#CC8306"/>
<path d="M20.1905 22.8838V24.515H19.8696V22.8838H20.1905ZM20.1155 22.7775H19.9259L20.0988 22.4775H20.4425L20.1155 22.7775Z" fill="#CC8306"/>
<path d="M22.816 22.8838V24.5817H22.8056L21.664 23.5505L21.6702 24.515H21.3452V22.8192H21.3577L22.4973 23.865L22.491 22.8838H22.816Z" fill="#CC8306"/>
<path d="M24.7752 24.1963H24.2356L24.1023 24.515H23.7856L24.5211 22.8192H24.5398L25.2752 24.515H24.9023L24.7752 24.1963ZM24.669 23.9255L24.5127 23.5296L24.3481 23.9255H24.669Z" fill="#CC8306"/>
<path d="M27.9259 22.8171V24.5151H27.603V23.738L27.0717 24.4921H27.0675L26.555 23.7859V24.5151H26.2446V22.8171H26.2467L27.0738 23.9901L27.9196 22.8171H27.9259Z" fill="#CC8306"/>
<path d="M28.979 23.7026C28.979 23.5541 29.0165 23.4161 29.0915 23.288C29.1665 23.1588 29.2675 23.0562 29.3957 22.9796C29.5233 22.9036 29.6613 22.8651 29.8103 22.8651C29.9603 22.8651 30.0988 22.9036 30.2269 22.9796C30.3545 23.0562 30.4561 23.1588 30.5311 23.288C30.6071 23.4161 30.6457 23.5541 30.6457 23.7026C30.6457 23.8526 30.6071 23.9916 30.5311 24.1192C30.4561 24.2458 30.3545 24.3463 30.2269 24.4213C30.0988 24.4963 29.9603 24.5338 29.8103 24.5338C29.6603 24.5338 29.5212 24.4963 29.3936 24.4213C29.267 24.3463 29.1665 24.2458 29.0915 24.1192C29.0165 23.9916 28.979 23.8526 28.979 23.7026ZM29.3123 23.7026C29.3123 23.7973 29.3342 23.8848 29.379 23.9651C29.4248 24.0442 29.4858 24.1078 29.5623 24.1546C29.6399 24.2005 29.7269 24.2234 29.8228 24.2234C29.9129 24.2234 29.9957 24.2005 30.0707 24.1546C30.1467 24.1078 30.2066 24.0442 30.2498 23.9651C30.2925 23.8859 30.3144 23.7984 30.3144 23.7026C30.3144 23.6041 30.292 23.5151 30.2478 23.4359C30.203 23.3557 30.1425 23.2921 30.0665 23.2463C29.9899 23.1994 29.905 23.1755 29.8123 23.1755C29.7191 23.1755 29.6342 23.1994 29.5582 23.2463C29.4832 23.2921 29.4233 23.3557 29.379 23.4359C29.3342 23.5151 29.3123 23.6041 29.3123 23.7026Z" fill="#CC8306"/>
<path d="M32.5715 23.2775C32.4298 23.1999 32.3069 23.1608 32.2027 23.1608C32.1303 23.1608 32.0746 23.1749 32.036 23.2025C31.997 23.2306 31.9777 23.2728 31.9777 23.3296C31.9777 23.3812 32.0058 23.4265 32.0631 23.465C32.1199 23.5041 32.1954 23.5416 32.2902 23.5775C32.3662 23.6056 32.4319 23.6374 32.486 23.6733C32.5412 23.7098 32.5871 23.7598 32.6235 23.8233C32.6595 23.8874 32.6777 23.9681 32.6777 24.065C32.6777 24.1499 32.6558 24.2286 32.6131 24.3004C32.5699 24.3713 32.5058 24.4286 32.4215 24.4713C32.3366 24.5129 32.236 24.5338 32.1194 24.5338C32.022 24.5338 31.9256 24.5192 31.8298 24.49C31.734 24.4608 31.6444 24.4166 31.561 24.3567L31.7027 24.1067C31.7595 24.1483 31.8241 24.1827 31.8965 24.2088C31.9683 24.2353 32.0329 24.2483 32.0902 24.2483C32.1579 24.2483 32.2173 24.2348 32.2673 24.2067C32.3183 24.1775 32.3444 24.1306 32.3444 24.065C32.3444 23.9806 32.2652 23.9077 32.1069 23.8463C32.0136 23.8088 31.936 23.7733 31.8735 23.74C31.811 23.7056 31.7569 23.6567 31.711 23.5942C31.6662 23.5306 31.6444 23.4499 31.6444 23.3525C31.6444 23.2124 31.6902 23.0999 31.7819 23.015C31.8746 22.9291 31.9985 22.8827 32.1527 22.8754C32.2735 22.8754 32.3741 22.8895 32.4548 22.9171C32.5366 22.9437 32.6162 22.9817 32.6944 23.0317L32.5715 23.2775Z" fill="#CC8306"/>
<path d="M16.614 27.6599L16.2724 27.1412H16.0557V27.6599H15.7349V26.0287H16.2286C16.4312 26.0287 16.588 26.0782 16.6994 26.1766C16.8119 26.274 16.8682 26.4079 16.8682 26.5787C16.8682 26.6787 16.8463 26.7735 16.8036 26.862C16.7619 26.9495 16.6974 27.0183 16.6099 27.0683L16.989 27.6599H16.614ZM16.0557 26.8308H16.2849C16.3724 26.8308 16.4354 26.8058 16.4744 26.7558C16.5146 26.7047 16.5349 26.649 16.5349 26.5891C16.5349 26.5308 16.5172 26.4745 16.4828 26.4204C16.4494 26.3662 16.3838 26.3391 16.2869 26.3391H16.0557V26.8308Z" fill="white" fill-opacity="0.4"/>
<path d="M19.1013 26.0287V26.3391H18.3096V26.687H19.0117V26.9974H18.3096V27.3495H19.1325V27.6599H17.9888V26.0287H19.1013Z" fill="white" fill-opacity="0.4"/>
<path d="M20.5186 26.0287V27.3495H21.2873V27.6599H20.1978V26.0287H20.5186Z" fill="white" fill-opacity="0.4"/>
<path d="M22.6729 26.0287V27.6599H22.3521V26.0287H22.6729Z" fill="white" fill-opacity="0.4"/>
<path d="M25.1505 27.4954C25.1255 27.5219 25.0807 27.5495 25.0171 27.5787C24.9531 27.6079 24.8822 27.6323 24.8046 27.6516C24.7265 27.6693 24.6557 27.6787 24.5921 27.6787C24.4197 27.6787 24.2676 27.6454 24.1359 27.5787C24.0051 27.511 23.9046 27.4172 23.8338 27.2974C23.763 27.1782 23.7275 27.0428 23.7275 26.8912C23.7275 26.7011 23.765 26.5402 23.84 26.4079C23.9161 26.2745 24.0176 26.1756 24.1442 26.1099C24.2718 26.0433 24.4119 26.0099 24.565 26.0099C24.665 26.0099 24.7577 26.0214 24.8442 26.0433C24.9317 26.0657 25.0088 26.0948 25.0755 26.1308L24.9713 26.4287C24.9281 26.4053 24.8692 26.3839 24.7942 26.3641C24.7202 26.3448 24.6588 26.3349 24.6088 26.3349C24.4307 26.3349 24.2947 26.3797 24.2005 26.4683C24.1072 26.5558 24.0609 26.687 24.0609 26.862C24.0609 26.962 24.0838 27.0495 24.1296 27.1245C24.1755 27.1995 24.239 27.2573 24.3213 27.2974C24.4031 27.3365 24.4963 27.3558 24.6005 27.3558C24.7015 27.3558 24.7765 27.3422 24.8255 27.3141V27.1162H24.5442V26.8058H25.1505V27.4954Z" fill="white" fill-opacity="0.4"/>
<path d="M27.056 27.3412H26.5164L26.3831 27.6599H26.0664L26.8018 25.9641H26.8206L27.556 27.6599H27.1831L27.056 27.3412ZM26.9497 27.0704L26.7935 26.6745L26.6289 27.0704H26.9497Z" fill="white" fill-opacity="0.4"/>
<path d="M28.5254 26.0287H29.0129C29.2212 26.0287 29.3926 26.0693 29.5275 26.1495C29.6618 26.2302 29.7598 26.3344 29.8212 26.462C29.8822 26.5901 29.9129 26.7266 29.9129 26.8724C29.9129 27.0297 29.8759 27.1677 29.8025 27.287C29.7285 27.4068 29.6296 27.499 29.5046 27.5641C29.3796 27.6282 29.2421 27.6599 29.0921 27.6599H28.5254V26.0287ZM29.0379 27.3495C29.2046 27.3495 29.3363 27.3073 29.4337 27.2224C29.5322 27.1365 29.5816 27.0131 29.5816 26.8516C29.5816 26.7214 29.5546 26.6177 29.5004 26.5412C29.4462 26.4636 29.3827 26.4099 29.3108 26.3808C29.24 26.3516 29.1723 26.337 29.1087 26.337H28.8462V27.3495H29.0379Z" fill="white" fill-opacity="0.4"/>
<path d="M30.8677 26.8474C30.8677 26.699 30.9052 26.561 30.9802 26.4329C31.0552 26.3037 31.1562 26.2011 31.2843 26.1245C31.4119 26.0485 31.55 26.0099 31.6989 26.0099C31.8489 26.0099 31.9875 26.0485 32.1156 26.1245C32.2432 26.2011 32.3448 26.3037 32.4198 26.4329C32.4958 26.561 32.5343 26.699 32.5343 26.8474C32.5343 26.9974 32.4958 27.1365 32.4198 27.2641C32.3448 27.3907 32.2432 27.4912 32.1156 27.5662C31.9875 27.6412 31.8489 27.6787 31.6989 27.6787C31.5489 27.6787 31.4099 27.6412 31.2823 27.5662C31.1557 27.4912 31.0552 27.3907 30.9802 27.2641C30.9052 27.1365 30.8677 26.9974 30.8677 26.8474ZM31.201 26.8474C31.201 26.9422 31.2229 27.0297 31.2677 27.1099C31.3135 27.1891 31.3744 27.2527 31.451 27.2995C31.5286 27.3454 31.6156 27.3683 31.7114 27.3683C31.8015 27.3683 31.8843 27.3454 31.9593 27.2995C32.0354 27.2527 32.0953 27.1891 32.1385 27.1099C32.1812 27.0308 32.2031 26.9433 32.2031 26.8474C32.2031 26.749 32.1807 26.6599 32.1364 26.5808C32.0916 26.5006 32.0312 26.437 31.9552 26.3912C31.8786 26.3443 31.7937 26.3204 31.701 26.3204C31.6078 26.3204 31.5229 26.3443 31.4468 26.3912C31.3718 26.437 31.3119 26.5006 31.2677 26.5808C31.2229 26.6599 31.201 26.749 31.201 26.8474Z" fill="white" fill-opacity="0.4"/>
<path d="M34.4596 26.4225C34.318 26.3449 34.1951 26.3058 34.0909 26.3058C34.0185 26.3058 33.9628 26.3199 33.9242 26.3475C33.8852 26.3756 33.8659 26.4178 33.8659 26.4746C33.8659 26.5261 33.894 26.5714 33.9513 26.61C34.0081 26.649 34.0836 26.6865 34.1784 26.7225C34.2544 26.7506 34.3201 26.7824 34.3742 26.8183C34.4294 26.8548 34.4753 26.9048 34.5117 26.9683C34.5477 27.0324 34.5659 27.1131 34.5659 27.21C34.5659 27.2949 34.544 27.3735 34.5013 27.4454C34.4581 27.5162 34.394 27.5735 34.3096 27.6162C34.2247 27.6579 34.1242 27.6787 34.0076 27.6787C33.9102 27.6787 33.8138 27.6641 33.718 27.635C33.6221 27.6058 33.5326 27.5615 33.4492 27.5016L33.5909 27.2516C33.6477 27.2933 33.7122 27.3277 33.7846 27.3537C33.8565 27.3803 33.9211 27.3933 33.9784 27.3933C34.0461 27.3933 34.1055 27.3798 34.1555 27.3516C34.2065 27.3225 34.2326 27.2756 34.2326 27.21C34.2326 27.1256 34.1534 27.0527 33.9951 26.9912C33.9018 26.9537 33.8242 26.9183 33.7617 26.885C33.6992 26.8506 33.6451 26.8016 33.5992 26.7391C33.5544 26.6756 33.5326 26.5949 33.5326 26.4975C33.5326 26.3574 33.5784 26.2449 33.6701 26.16C33.7628 26.074 33.8867 26.0277 34.0409 26.0204C34.1617 26.0204 34.2622 26.0344 34.343 26.0621C34.4247 26.0886 34.5044 26.1266 34.5826 26.1766L34.4596 26.4225Z" fill="white" fill-opacity="0.4"/>
<path d="M16.5164 27.562L16.1747 27.0432H15.958V27.562H15.6372V25.9307H16.131C16.3336 25.9307 16.4903 25.9802 16.6018 26.0786C16.7143 26.176 16.7705 26.3099 16.7705 26.4807C16.7705 26.5807 16.7487 26.6755 16.706 26.7641C16.6643 26.8516 16.5997 26.9203 16.5122 26.9703L16.8914 27.562H16.5164ZM15.958 26.7328H16.1872C16.2747 26.7328 16.3377 26.7078 16.3768 26.6578C16.4169 26.6068 16.4372 26.551 16.4372 26.4911C16.4372 26.4328 16.4195 26.3766 16.3851 26.3224C16.3518 26.2682 16.2862 26.2411 16.1893 26.2411H15.958V26.7328Z" fill="#CC8306"/>
<path d="M19.0031 25.9307V26.2411H18.2115V26.5891H18.9135V26.8995H18.2115V27.2516H19.0344V27.562H17.8906V25.9307H19.0031Z" fill="#CC8306"/>
<path d="M20.4209 25.9307V27.2516H21.1897V27.562H20.1001V25.9307H20.4209Z" fill="#CC8306"/>
<path d="M22.5747 25.9307V27.562H22.2539V25.9307H22.5747Z" fill="#CC8306"/>
<path d="M25.0528 27.3974C25.0278 27.424 24.983 27.4516 24.9195 27.4807C24.8554 27.5099 24.7846 27.5344 24.707 27.5537C24.6288 27.5714 24.558 27.5807 24.4945 27.5807C24.3221 27.5807 24.17 27.5474 24.0382 27.4807C23.9075 27.413 23.807 27.3193 23.7361 27.1995C23.6653 27.0802 23.6299 26.9448 23.6299 26.7932C23.6299 26.6031 23.6674 26.4422 23.7424 26.3099C23.8184 26.1766 23.92 26.0776 24.0465 26.012C24.1742 25.9453 24.3143 25.912 24.4674 25.912C24.5674 25.912 24.6601 25.9234 24.7465 25.9453C24.834 25.9677 24.9111 25.9969 24.9778 26.0328L24.8736 26.3307C24.8304 26.3073 24.7715 26.2859 24.6965 26.2662C24.6226 26.2469 24.5611 26.237 24.5111 26.237C24.333 26.237 24.1971 26.2818 24.1028 26.3703C24.0096 26.4578 23.9632 26.5891 23.9632 26.7641C23.9632 26.8641 23.9861 26.9516 24.032 27.0266C24.0778 27.1016 24.1413 27.1594 24.2236 27.1995C24.3054 27.2385 24.3986 27.2578 24.5028 27.2578C24.6038 27.2578 24.6788 27.2443 24.7278 27.2162V27.0182H24.4465V26.7078H25.0528V27.3974Z" fill="#CC8306"/>
<path d="M26.9578 27.2432H26.4183L26.2849 27.562H25.9683L26.7037 25.8661H26.7224L27.4578 27.562H27.0849L26.9578 27.2432ZM26.8516 26.9724L26.6953 26.5766L26.5308 26.9724H26.8516Z" fill="#CC8306"/>
<path d="M28.4277 25.9307H28.9152C29.1236 25.9307 29.2949 25.9714 29.4298 26.0516C29.5642 26.1323 29.6621 26.2365 29.7236 26.3641C29.7845 26.4922 29.8152 26.6286 29.8152 26.7745C29.8152 26.9318 29.7783 27.0698 29.7048 27.1891C29.6309 27.3089 29.5319 27.401 29.4069 27.4661C29.2819 27.5302 29.1444 27.562 28.9944 27.562H28.4277V25.9307ZM28.9402 27.2516C29.1069 27.2516 29.2387 27.2094 29.3361 27.1245C29.4345 27.0385 29.484 26.9151 29.484 26.7536C29.484 26.6234 29.4569 26.5198 29.4027 26.4432C29.3486 26.3656 29.285 26.312 29.2132 26.2828C29.1423 26.2536 29.0746 26.2391 29.0111 26.2391H28.7486V27.2516H28.9402Z" fill="#CC8306"/>
<path d="M30.7695 26.7495C30.7695 26.601 30.807 26.463 30.882 26.3349C30.957 26.2057 31.0581 26.1031 31.1862 26.0266C31.3138 25.9505 31.4518 25.912 31.6008 25.912C31.7508 25.912 31.8893 25.9505 32.0174 26.0266C32.1451 26.1031 32.2466 26.2057 32.3216 26.3349C32.3977 26.463 32.4362 26.601 32.4362 26.7495C32.4362 26.8995 32.3977 27.0385 32.3216 27.1662C32.2466 27.2927 32.1451 27.3932 32.0174 27.4682C31.8893 27.5432 31.7508 27.5807 31.6008 27.5807C31.4508 27.5807 31.3117 27.5432 31.1841 27.4682C31.0576 27.3932 30.957 27.2927 30.882 27.1662C30.807 27.0385 30.7695 26.8995 30.7695 26.7495ZM31.1029 26.7495C31.1029 26.8443 31.1247 26.9318 31.1695 27.012C31.2154 27.0912 31.2763 27.1547 31.3529 27.2016C31.4305 27.2474 31.5174 27.2703 31.6133 27.2703C31.7034 27.2703 31.7862 27.2474 31.8612 27.2016C31.9372 27.1547 31.9971 27.0912 32.0404 27.012C32.0831 26.9328 32.1049 26.8453 32.1049 26.7495C32.1049 26.651 32.0826 26.562 32.0383 26.4828C31.9935 26.4026 31.9331 26.3391 31.857 26.2932C31.7805 26.2464 31.6956 26.2224 31.6029 26.2224C31.5096 26.2224 31.4247 26.2464 31.3487 26.2932C31.2737 26.3391 31.2138 26.4026 31.1695 26.4828C31.1247 26.562 31.1029 26.651 31.1029 26.7495Z" fill="#CC8306"/>
<path d="M34.362 26.3245C34.2203 26.2469 34.0974 26.2078 33.9932 26.2078C33.9208 26.2078 33.8651 26.2219 33.8266 26.2495C33.7875 26.2776 33.7682 26.3198 33.7682 26.3766C33.7682 26.4282 33.7964 26.4735 33.8536 26.512C33.9104 26.5511 33.9859 26.5886 34.0807 26.6245C34.1568 26.6526 34.2224 26.6844 34.2766 26.7203C34.3318 26.7568 34.3776 26.8068 34.4141 26.8703C34.45 26.9344 34.4682 27.0151 34.4682 27.112C34.4682 27.1969 34.4464 27.2755 34.4036 27.3474C34.3604 27.4183 34.2964 27.4755 34.212 27.5183C34.1271 27.5599 34.0266 27.5808 33.9099 27.5808C33.8125 27.5808 33.7161 27.5662 33.6203 27.537C33.5245 27.5078 33.4349 27.4636 33.3516 27.4037L33.4932 27.1537C33.55 27.1953 33.6146 27.2297 33.687 27.2558C33.7589 27.2823 33.8234 27.2953 33.8807 27.2953C33.9484 27.2953 34.0078 27.2818 34.0578 27.2537C34.1089 27.2245 34.1349 27.1776 34.1349 27.112C34.1349 27.0276 34.0557 26.9547 33.8974 26.8933C33.8042 26.8558 33.7266 26.8203 33.6641 26.787C33.6016 26.7526 33.5474 26.7037 33.5016 26.6412C33.4568 26.5776 33.4349 26.4969 33.4349 26.3995C33.4349 26.2594 33.4807 26.1469 33.5724 26.062C33.6651 25.9761 33.7891 25.9297 33.9432 25.9224C34.0641 25.9224 34.1646 25.9365 34.2453 25.9641C34.3271 25.9907 34.4068 26.0287 34.4849 26.0787L34.362 26.3245Z" fill="#CC8306"/>
<path d="M14.4757 29.0332C14.4757 29.0931 14.4637 29.1447 14.4403 29.1874C14.4179 29.2317 14.3861 29.265 14.3444 29.2874C14.3028 29.3108 14.2549 29.3239 14.2007 29.327V29.2124C14.2491 29.2093 14.2871 29.1937 14.3153 29.1645C14.3444 29.1353 14.359 29.0911 14.359 29.0312V28.4457H14.4757V29.0332Z" fill="#CC8306"/>
<path d="M15.0317 28.8103C15.0317 28.7436 15.0484 28.6822 15.0817 28.6249C15.1161 28.5681 15.1619 28.5228 15.2192 28.4895C15.276 28.4551 15.338 28.4374 15.4047 28.4374C15.4713 28.4374 15.5328 28.4551 15.5901 28.4895C15.6484 28.5228 15.6942 28.5686 15.7276 28.627C15.7619 28.6843 15.7797 28.7452 15.7797 28.8103C15.7797 28.8785 15.7619 28.941 15.7276 28.9978C15.6942 29.0551 15.6484 29.0999 15.5901 29.1332C15.5328 29.1665 15.4713 29.1832 15.4047 29.1832C15.338 29.1832 15.276 29.1665 15.2192 29.1332C15.1619 29.0999 15.1161 29.0551 15.0817 28.9978C15.0484 28.941 15.0317 28.8785 15.0317 28.8103ZM15.1526 28.8103C15.1526 28.8593 15.1635 28.903 15.1859 28.9415C15.2093 28.9806 15.2406 29.0119 15.2797 29.0353C15.3182 29.0593 15.3614 29.0707 15.4088 29.0707C15.4547 29.0707 15.4963 29.0598 15.5338 29.0374C15.5724 29.0139 15.6031 28.9827 15.6255 28.9436C15.6474 28.9035 15.6588 28.8593 15.6588 28.8103C15.6588 28.7634 15.6468 28.7202 15.6234 28.6811C15.601 28.641 15.5703 28.6093 15.5317 28.5853C15.4942 28.5619 15.4515 28.5499 15.4047 28.5499C15.3588 28.5499 15.3161 28.5619 15.2776 28.5853C15.2385 28.6093 15.2078 28.641 15.1859 28.6811C15.1635 28.7202 15.1526 28.7634 15.1526 28.8103Z" fill="#CC8306"/>
<path d="M16.9255 28.4457L16.6005 29.2082L16.2734 28.4457H16.413L16.6047 28.9249L16.7901 28.4457H16.9255Z" fill="#CC8306"/>
<path d="M17.9482 28.4457V28.5582H17.5815V28.752H17.9086V28.8645H17.5815V29.0624H17.9628V29.1749H17.4648V28.4457H17.9482Z" fill="#CC8306"/>
<path d="M19.1696 28.4457V29.202H19.1675L18.6405 28.6915L18.6446 29.1749H18.5259V28.4207H18.5321L19.0571 28.9374L19.055 28.4457H19.1696Z" fill="#CC8306"/>
<path d="M20.1565 28.5937C20.094 28.5603 20.0383 28.5437 19.9898 28.5437C19.9534 28.5437 19.9242 28.552 19.9023 28.5687C19.8815 28.5853 19.8711 28.6077 19.8711 28.6353C19.8711 28.6619 19.8841 28.6848 19.9107 28.7041C19.9367 28.7223 19.9737 28.7405 20.0211 28.7583C20.057 28.7708 20.0878 28.7853 20.1128 28.802C20.1388 28.8187 20.1607 28.8411 20.1773 28.8687C20.194 28.8968 20.2023 28.9322 20.2023 28.9749C20.2023 29.014 20.1924 29.0494 20.1732 29.0812C20.1549 29.1119 20.1273 29.1369 20.0898 29.1562C20.0534 29.1744 20.0107 29.1833 19.9607 29.1833C19.9159 29.1833 19.8721 29.176 19.8294 29.1624C19.7862 29.1489 19.7482 29.1301 19.7148 29.1062L19.7669 29.0145C19.7919 29.0343 19.8211 29.0499 19.8544 29.0624C19.8888 29.0739 19.9201 29.0791 19.9482 29.0791C19.9841 29.0791 20.0154 29.0708 20.0419 29.0541C20.068 29.0374 20.0815 29.0114 20.0815 28.9749C20.0815 28.9473 20.0701 28.9244 20.0482 28.9062C20.0258 28.8869 19.9945 28.8697 19.9544 28.8541C19.9128 28.839 19.8779 28.8239 19.8503 28.8083C19.8237 28.7932 19.8008 28.7723 19.7815 28.7458C19.7617 28.7182 19.7523 28.6843 19.7523 28.6437C19.7523 28.5843 19.7721 28.5364 19.8128 28.4999C19.8529 28.464 19.9055 28.4447 19.9711 28.4416C20.0195 28.4416 20.0617 28.4473 20.0982 28.4583C20.1341 28.4697 20.168 28.4848 20.2003 28.5041L20.1565 28.5937Z" fill="#CC8306"/>
<path d="M21.9628 28.4457V28.5582H21.5962V28.752H21.9232V28.8645H21.5962V29.0624H21.9774V29.1749H21.4795V28.4457H21.9628Z" fill="#CC8306"/>
<path d="M23.6375 29.0041H23.3729L23.3021 29.1749H23.1875L23.5083 28.4145H23.5167L23.8396 29.1749H23.7042L23.6375 29.0041ZM23.5979 28.9041L23.5063 28.6728L23.4125 28.9041H23.5979Z" fill="#CC8306"/>
<path d="M24.3643 28.4457H24.5726C24.6643 28.4457 24.7398 28.464 24.7997 28.4999C24.859 28.5364 24.9023 28.5827 24.9288 28.6395C24.9564 28.6968 24.9705 28.7572 24.9705 28.8207C24.9705 28.8916 24.9538 28.9541 24.9205 29.0082C24.8872 29.0614 24.8424 29.102 24.7872 29.1312C24.733 29.1603 24.6731 29.1749 24.608 29.1749H24.3643V28.4457ZM24.5851 29.0624C24.6377 29.0624 24.6835 29.053 24.7226 29.0332C24.7627 29.014 24.7939 28.9853 24.8163 28.9478C24.8382 28.9103 24.8497 28.8655 24.8497 28.8124C24.8497 28.7556 24.8372 28.7077 24.8122 28.6687C24.7882 28.6301 24.758 28.6015 24.7205 28.5832C24.683 28.5655 24.6439 28.5562 24.6038 28.5562H24.4809V29.0624H24.5851Z" fill="#CC8306"/>
<path d="M25.4824 28.8103C25.4824 28.7436 25.4991 28.6822 25.5324 28.6249C25.5668 28.5681 25.6126 28.5228 25.6699 28.4895C25.7267 28.4551 25.7887 28.4374 25.8553 28.4374C25.922 28.4374 25.9835 28.4551 26.0408 28.4895C26.0991 28.5228 26.1449 28.5686 26.1783 28.627C26.2126 28.6843 26.2303 28.7452 26.2303 28.8103C26.2303 28.8785 26.2126 28.941 26.1783 28.9978C26.1449 29.0551 26.0991 29.0999 26.0408 29.1332C25.9835 29.1665 25.922 29.1832 25.8553 29.1832C25.7887 29.1832 25.7267 29.1665 25.6699 29.1332C25.6126 29.0999 25.5668 29.0551 25.5324 28.9978C25.4991 28.941 25.4824 28.8785 25.4824 28.8103ZM25.6033 28.8103C25.6033 28.8593 25.6142 28.903 25.6366 28.9415C25.66 28.9806 25.6913 29.0119 25.7303 29.0353C25.7689 29.0593 25.8121 29.0707 25.8595 29.0707C25.9053 29.0707 25.947 29.0598 25.9845 29.0374C26.023 29.0139 26.0538 28.9827 26.0762 28.9436C26.098 28.9035 26.1095 28.8593 26.1095 28.8103C26.1095 28.7634 26.0975 28.7202 26.0741 28.6811C26.0517 28.641 26.021 28.6093 25.9824 28.5853C25.9449 28.5619 25.9022 28.5499 25.8553 28.5499C25.8095 28.5499 25.7668 28.5619 25.7283 28.5853C25.6892 28.6093 25.6585 28.641 25.6366 28.6811C25.6142 28.7202 25.6033 28.7634 25.6033 28.8103Z" fill="#CC8306"/>
<path d="M26.9033 28.4457V29.0624H27.2637V29.1749H26.7866V28.4457H26.9033Z" fill="#CC8306"/>
<path d="M28.3027 28.4457V28.5582H27.936V28.752H28.2631V28.8645H27.936V29.0624H28.3173V29.1749H27.8193V28.4457H28.3027Z" fill="#CC8306"/>
<path d="M29.2639 28.5937C29.2014 28.5603 29.1457 28.5437 29.0973 28.5437C29.0608 28.5437 29.0316 28.552 29.0098 28.5687C28.9889 28.5853 28.9785 28.6077 28.9785 28.6353C28.9785 28.6619 28.9915 28.6848 29.0181 28.7041C29.0441 28.7223 29.0811 28.7405 29.1285 28.7583C29.1645 28.7708 29.1952 28.7853 29.2202 28.802C29.2462 28.8187 29.2681 28.8411 29.2848 28.8687C29.3014 28.8968 29.3098 28.9322 29.3098 28.9749C29.3098 29.014 29.2999 29.0494 29.2806 29.0812C29.2624 29.1119 29.2348 29.1369 29.1973 29.1562C29.1608 29.1744 29.1181 29.1833 29.0681 29.1833C29.0233 29.1833 28.9796 29.176 28.9368 29.1624C28.8936 29.1489 28.8556 29.1301 28.8223 29.1062L28.8743 29.0145C28.8993 29.0343 28.9285 29.0499 28.9618 29.0624C28.9962 29.0739 29.0275 29.0791 29.0556 29.0791C29.0915 29.0791 29.1228 29.0708 29.1493 29.0541C29.1754 29.0374 29.1889 29.0114 29.1889 28.9749C29.1889 28.9473 29.1775 28.9244 29.1556 28.9062C29.1332 28.8869 29.102 28.8697 29.0618 28.8541C29.0202 28.839 28.9853 28.8239 28.9577 28.8083C28.9311 28.7932 28.9082 28.7723 28.8889 28.7458C28.8691 28.7182 28.8598 28.6843 28.8598 28.6437C28.8598 28.5843 28.8796 28.5364 28.9202 28.4999C28.9603 28.464 29.0129 28.4447 29.0785 28.4416C29.127 28.4416 29.1691 28.4473 29.2056 28.4583C29.2415 28.4697 29.2754 28.4848 29.3077 28.5041L29.2639 28.5937Z" fill="#CC8306"/>
<path d="M30.4068 29.1186C30.3844 29.1343 30.3548 29.1488 30.3173 29.1624C30.2798 29.1759 30.2386 29.1832 30.1943 29.1832C30.1193 29.1832 30.0532 29.1665 29.9964 29.1332C29.9391 29.0999 29.8954 29.0556 29.8652 28.9999C29.8344 28.9447 29.8193 28.8832 29.8193 28.8165C29.8193 28.7431 29.8344 28.678 29.8652 28.6207C29.8954 28.5639 29.9381 28.5197 29.9923 28.4874C30.0475 28.454 30.11 28.4374 30.1798 28.4374C30.2214 28.4374 30.26 28.4431 30.2964 28.454C30.3339 28.4655 30.3662 28.4801 30.3943 28.4978L30.3485 28.6061C30.2943 28.5686 30.2391 28.5499 30.1839 28.5499C30.1407 28.5499 30.1006 28.5619 30.0631 28.5853C30.0256 28.6077 29.9954 28.6389 29.9735 28.679C29.9527 28.7181 29.9423 28.7613 29.9423 28.8082C29.9423 28.8598 29.9516 28.9056 29.9714 28.9457C29.9923 28.9848 30.0214 29.0155 30.0589 29.0374C30.0964 29.0598 30.1402 29.0707 30.1902 29.0707C30.2245 29.0707 30.2558 29.066 30.2839 29.0561C30.3131 29.0452 30.337 29.0311 30.3568 29.0145L30.4068 29.1186Z" fill="#CC8306"/>
<path d="M31.4462 28.4457V28.5582H31.0796V28.752H31.4066V28.8645H31.0796V29.0624H31.4608V29.1749H30.9629V28.4457H31.4462Z" fill="#CC8306"/>
<path d="M32.6677 28.4457V29.202H32.6656L32.1385 28.6915L32.1427 29.1749H32.0239V28.4207H32.0302L32.5552 28.9374L32.5531 28.4457H32.6677Z" fill="#CC8306"/>
<path d="M33.7067 28.4457V28.5582H33.5192V29.1749H33.4026V28.5582H33.2192V28.4457H33.7067Z" fill="#CC8306"/>
<path d="M34.7402 28.4457V28.5582H34.3735V28.752H34.7006V28.8645H34.3735V29.0624H34.7548V29.1749H34.2568V28.4457H34.7402Z" fill="#CC8306"/>
<path d="M35.7009 28.5937C35.6384 28.5603 35.5827 28.5437 35.5343 28.5437C35.4978 28.5437 35.4687 28.552 35.4468 28.5687C35.4259 28.5853 35.4155 28.6077 35.4155 28.6353C35.4155 28.6619 35.4285 28.6848 35.4551 28.7041C35.4812 28.7223 35.5181 28.7405 35.5655 28.7583C35.6015 28.7708 35.6322 28.7853 35.6572 28.802C35.6832 28.8187 35.7051 28.8411 35.7218 28.8687C35.7384 28.8968 35.7468 28.9322 35.7468 28.9749C35.7468 29.014 35.7369 29.0494 35.7176 29.0812C35.6994 29.1119 35.6718 29.1369 35.6343 29.1562C35.5978 29.1744 35.5551 29.1833 35.5051 29.1833C35.4603 29.1833 35.4166 29.176 35.3739 29.1624C35.3306 29.1489 35.2926 29.1301 35.2593 29.1062L35.3114 29.0145C35.3364 29.0343 35.3655 29.0499 35.3989 29.0624C35.4332 29.0739 35.4645 29.0791 35.4926 29.0791C35.5285 29.0791 35.5598 29.0708 35.5864 29.0541C35.6124 29.0374 35.6259 29.0114 35.6259 28.9749C35.6259 28.9473 35.6145 28.9244 35.5926 28.9062C35.5702 28.8869 35.539 28.8697 35.4989 28.8541C35.4572 28.839 35.4223 28.8239 35.3947 28.8083C35.3681 28.7932 35.3452 28.7723 35.3259 28.7458C35.3062 28.7182 35.2968 28.6843 35.2968 28.6437C35.2968 28.5843 35.3166 28.5364 35.3572 28.4999C35.3973 28.464 35.4499 28.4447 35.5155 28.4416C35.564 28.4416 35.6062 28.4473 35.6426 28.4583C35.6785 28.4697 35.7124 28.4848 35.7447 28.5041L35.7009 28.5937Z" fill="#CC8306"/>
<path d="M24.5227 32.3336L24.2394 32.9961L23.9561 32.3336H24.0769L24.2436 32.7502L24.404 32.3336H24.5227Z" fill="white"/>
<path d="M25.1704 32.3336C25.2412 32.3336 25.2964 32.3518 25.337 32.3877C25.3787 32.4242 25.3995 32.4742 25.3995 32.5377C25.3995 32.5742 25.3917 32.608 25.3766 32.6398C25.3626 32.6721 25.3396 32.6976 25.3079 32.7169C25.2756 32.7367 25.2339 32.7461 25.1829 32.7461H25.0912V32.9669H24.9912V32.3336H25.1704ZM25.1829 32.6502C25.2105 32.6502 25.2329 32.645 25.2495 32.6336C25.2673 32.6211 25.2798 32.6065 25.287 32.5898C25.2938 32.5721 25.2975 32.5554 25.2975 32.5398C25.2975 32.5138 25.2891 32.4893 25.2725 32.4669C25.2558 32.4435 25.2271 32.4315 25.187 32.4315H25.0912V32.6502H25.1829Z" fill="white"/>
<path d="M25.9874 32.394V32.9669H25.8854V32.4898H25.8291V32.394H25.9874Z" fill="white"/>
</svg>
